<svg xmlns="http://www.w3.org/2000/svg" xmlns:xlink="http://www.w3.org/1999/xlink" width="1792" height="1267" viewBox="0 0 1792 1267">
  <defs>
    <filter id="Rectangle_115" x="0" y="0" width="1792" height="1267" filterUnits="userSpaceOnUse">
      <feOffset dx="20" dy="15" input="SourceAlpha"/>
      <feGaussianBlur stdDeviation="30" result="blur"/>
      <feFlood flood-opacity="0.161"/>
      <feComposite operator="in" in2="blur"/>
      <feComposite in="SourceGraphic"/>
    </filter>
  </defs>
  <g id="Group_10" data-name="Group 10" transform="translate(-84 -124)">
    <g id="Group_8" data-name="Group 8" transform="translate(0 90)">
      <g transform="matrix(1, 0, 0, 1, 84, 34)" filter="url(#Rectangle_115)">
        <rect id="Rectangle_115-2" data-name="Rectangle 115" width="1612" height="1087" rx="53" transform="translate(70 75)" fill="#fff"/>
      </g>
      <path id="Path_698" data-name="Path 698" d="M7.866,0V-22.268H.532V-26.6H19.76v4.332H12.426V0Zm15.77,0V-26.6H28.2V0ZM34.352-26.6H38.57l8.664,13.376L55.9-26.6h4.218V0h-4.56V-17.86L47.234-5.206,38.912-17.86V0h-4.56ZM70.3-22.268v6.46H80.94v4.332H70.3v7.144H82.08V0H65.74V-26.6H81.852v4.332Z" transform="translate(215.5 184.5)" fill="#92c7e5" opacity="0.97"/>
      <path id="Path_697" data-name="Path 697" d="M13.668-3.4a11.63,11.63,0,0,0,2.7-.289,5.381,5.381,0,0,0,1.649-.595l.442-.272V-9.588H13.056V-13.4h9.418V-2.584a4.3,4.3,0,0,1-.374.323q-.238.187-1.071.714a11.853,11.853,0,0,1-1.768.918,14.186,14.186,0,0,1-2.448.714,15.026,15.026,0,0,1-3.145.323A12.238,12.238,0,0,1,4.777-3.128,11.768,11.768,0,0,1,1.156-11.9a11.867,11.867,0,0,1,3.553-8.789A12,12,0,0,1,13.5-24.208a13.059,13.059,0,0,1,3.145.374,11.513,11.513,0,0,1,2.5.884,14.908,14.908,0,0,1,1.734,1.037,6.878,6.878,0,0,1,1.088.9l.34.374-2.788,2.72a1.992,1.992,0,0,0-.238-.272q-.17-.17-.714-.595a7.04,7.04,0,0,0-1.19-.748,8.8,8.8,0,0,0-1.7-.595A8.673,8.673,0,0,0,13.5-20.4a7.676,7.676,0,0,0-5.865,2.5,8.492,8.492,0,0,0-2.329,6,8.33,8.33,0,0,0,2.414,6A7.946,7.946,0,0,0,13.668-3.4ZM24.446,0l9.248-23.8h4.148L47.09,0H42.976L40.8-5.644H30.736L28.56,0ZM35.768-18.666,32.2-9.384h7.14ZM49.81-23.8h3.774l7.752,11.968L69.088-23.8h3.774V0h-4.08V-15.98L61.336-4.658,53.89-15.98V0H49.81ZM78.37,0V-23.8h4.08V0Zm9.588-23.8H91.63l11.9,16.388V-23.8h4.08V0h-3.672l-11.9-16.354V0h-4.08ZM123.794-3.4a11.63,11.63,0,0,0,2.7-.289,5.381,5.381,0,0,0,1.649-.595l.442-.272V-9.588h-5.406V-13.4H132.6V-2.584a4.3,4.3,0,0,1-.374.323q-.238.187-1.071.714a11.853,11.853,0,0,1-1.768.918,14.186,14.186,0,0,1-2.448.714,15.026,15.026,0,0,1-3.145.323A12.238,12.238,0,0,1,114.9-3.128a11.768,11.768,0,0,1-3.621-8.772,11.866,11.866,0,0,1,3.553-8.789,12,12,0,0,1,8.789-3.519,13.059,13.059,0,0,1,3.145.374,11.512,11.512,0,0,1,2.5.884A14.909,14.909,0,0,1,131-21.913a6.878,6.878,0,0,1,1.088.9l.34.374-2.788,2.72a1.992,1.992,0,0,0-.238-.272q-.17-.17-.714-.595a7.04,7.04,0,0,0-1.19-.748,8.8,8.8,0,0,0-1.7-.595,8.673,8.673,0,0,0-2.176-.272,7.676,7.676,0,0,0-5.865,2.5,8.492,8.492,0,0,0-2.329,6,8.33,8.33,0,0,0,2.414,6A7.946,7.946,0,0,0,123.794-3.4Z" transform="translate(357.5 182.5)" fill="#79b2d2" opacity="0.86"/>
      <path id="Path_694" data-name="Path 694" d="M14.416-6.222a2.482,2.482,0,0,0-.986-2.125,13.88,13.88,0,0,0-3.366-1.581A25.17,25.17,0,0,1,7.4-11.033a15.18,15.18,0,0,1-2.329-1.445,5.937,5.937,0,0,1-1.819-2.159,6.329,6.329,0,0,1-.629-2.839,6.266,6.266,0,0,1,2.176-4.692,7.873,7.873,0,0,1,5.61-2.04,9.394,9.394,0,0,1,2.7.391,8.472,8.472,0,0,1,2.176.952q.867.561,1.547,1.1a5.719,5.719,0,0,1,.986.952l.34.374-2.822,2.788q-.068-.1-.221-.289a7.438,7.438,0,0,0-.663-.646,9.61,9.61,0,0,0-1.037-.816,5.866,5.866,0,0,0-1.36-.646,5.007,5.007,0,0,0-1.649-.289A4.038,4.038,0,0,0,7.82-19.5a2.5,2.5,0,0,0-1.054,2.023,2.368,2.368,0,0,0,.7,1.683,4.624,4.624,0,0,0,1.411,1.054q.714.323,2.788,1.1.17.068.238.1a23.761,23.761,0,0,1,2.618,1.122,10.978,10.978,0,0,1,2.057,1.394,5.3,5.3,0,0,1,1.5,2.04,7.152,7.152,0,0,1,.493,2.754,5.713,5.713,0,0,1-2.38,4.879A9.711,9.711,0,0,1,10.268.408,10.2,10.2,0,0,1,7.089-.085,8.47,8.47,0,0,1,4.624-1.292,15.684,15.684,0,0,1,2.941-2.737,7.95,7.95,0,0,1,1.9-3.944l-.34-.51,3.06-2.584a3.065,3.065,0,0,0,.238.374q.17.238.714.867A7.413,7.413,0,0,0,6.732-4.709a7.121,7.121,0,0,0,1.564.85,5.143,5.143,0,0,0,1.972.391,5.815,5.815,0,0,0,2.924-.7A2.233,2.233,0,0,0,14.416-6.222Zm22.61-2.924V-23.8h4.08V-8.636A8.846,8.846,0,0,1,38.59-2.125,8.975,8.975,0,0,1,31.926.408a8.975,8.975,0,0,1-6.664-2.533,8.846,8.846,0,0,1-2.516-6.511V-23.8h4.08V-9.146A6.17,6.17,0,0,0,28.135-5a4.714,4.714,0,0,0,3.791,1.53A4.714,4.714,0,0,0,35.717-5,6.17,6.17,0,0,0,37.026-9.146ZM46.138,0V-23.8h7.82a7.936,7.936,0,0,1,5.712,2.074,7.047,7.047,0,0,1,2.176,5.338,7.538,7.538,0,0,1-1.394,4.607,6.772,6.772,0,0,1-3.91,2.533L62.492,0h-4.76L52.088-8.976h-1.87V0Zm7.31-12.852a4.872,4.872,0,0,0,3.128-.9A3.18,3.18,0,0,0,57.7-16.388a3.18,3.18,0,0,0-1.122-2.635,4.872,4.872,0,0,0-3.128-.9h-3.23v7.072Zm20.094.408a4.518,4.518,0,0,0,3.145-1,3.511,3.511,0,0,0,1.1-2.737,3.511,3.511,0,0,0-1.1-2.737,4.518,4.518,0,0,0-3.145-1h-3.5v7.48ZM65.96,0V-23.8h8.092a7.771,7.771,0,0,1,5.695,2.159,7.336,7.336,0,0,1,2.193,5.457,7.336,7.336,0,0,1-2.193,5.457,7.771,7.771,0,0,1-5.695,2.159H70.04V0ZM85.2,0V-23.8h7.82a7.936,7.936,0,0,1,5.712,2.074,7.047,7.047,0,0,1,2.176,5.338,7.538,7.538,0,0,1-1.394,4.607,6.772,6.772,0,0,1-3.91,2.533L101.558,0H96.8L91.154-8.976h-1.87V0Zm7.31-12.852a4.872,4.872,0,0,0,3.128-.9,3.18,3.18,0,0,0,1.122-2.635,3.18,3.18,0,0,0-1.122-2.635,4.872,4.872,0,0,0-3.128-.9h-3.23v7.072ZM105.5,0V-23.8h4.08V0ZM126.99-6.222A2.482,2.482,0,0,0,126-8.347a13.88,13.88,0,0,0-3.366-1.581,25.169,25.169,0,0,1-2.669-1.105,15.179,15.179,0,0,1-2.329-1.445,5.937,5.937,0,0,1-1.819-2.159,6.329,6.329,0,0,1-.629-2.839,6.266,6.266,0,0,1,2.176-4.692,7.873,7.873,0,0,1,5.61-2.04,9.394,9.394,0,0,1,2.7.391,8.472,8.472,0,0,1,2.176.952q.867.561,1.547,1.1a5.72,5.72,0,0,1,.986.952l.34.374-2.822,2.788q-.068-.1-.221-.289a7.437,7.437,0,0,0-.663-.646,9.61,9.61,0,0,0-1.037-.816,5.866,5.866,0,0,0-1.36-.646,5.007,5.007,0,0,0-1.649-.289,4.038,4.038,0,0,0-2.584.833,2.5,2.5,0,0,0-1.054,2.023,2.368,2.368,0,0,0,.7,1.683,4.624,4.624,0,0,0,1.411,1.054q.714.323,2.788,1.1.17.068.238.1a23.762,23.762,0,0,1,2.618,1.122,10.978,10.978,0,0,1,2.057,1.394,5.3,5.3,0,0,1,1.5,2.04,7.152,7.152,0,0,1,.493,2.754,5.713,5.713,0,0,1-2.38,4.879A9.712,9.712,0,0,1,122.842.408a10.2,10.2,0,0,1-3.179-.493A8.47,8.47,0,0,1,117.2-1.292a15.684,15.684,0,0,1-1.683-1.445,7.95,7.95,0,0,1-1.037-1.207l-.34-.51,3.06-2.584a3.065,3.065,0,0,0,.238.374q.17.238.714.867a7.413,7.413,0,0,0,1.156,1.088,7.121,7.121,0,0,0,1.564.85,5.143,5.143,0,0,0,1.972.391,5.815,5.815,0,0,0,2.924-.7A2.233,2.233,0,0,0,126.99-6.222Zm12.41-13.7v5.78h9.52v3.876H139.4v6.392h10.54V0H135.32V-23.8h14.416v3.876Z" transform="translate(545.5 182.5)" fill="#6fa7c5" opacity="0.86"/>
      <path id="Path_693" data-name="Path 693" d="M4.573-20.706a11.536,11.536,0,0,1,8.619-3.5,11.536,11.536,0,0,1,8.619,3.5A12.1,12.1,0,0,1,25.228-11.9,12.743,12.743,0,0,1,23.12-4.726l3.366,2.89L23.868,1.156l-3.5-3.026A11.682,11.682,0,0,1,13.192.408a11.536,11.536,0,0,1-8.619-3.5A12.1,12.1,0,0,1,1.156-11.9,12.1,12.1,0,0,1,4.573-20.706ZM13.158-8.16l2.618-2.958,4.216,3.672A9.065,9.065,0,0,0,21.08-11.9a8.646,8.646,0,0,0-2.193-5.984,7.29,7.29,0,0,0-5.7-2.448,7.29,7.29,0,0,0-5.7,2.448A8.646,8.646,0,0,0,5.3-11.9,8.646,8.646,0,0,0,7.5-5.916a7.29,7.29,0,0,0,5.7,2.448,7.853,7.853,0,0,0,4.08-1.088ZM43.69-9.146V-23.8h4.08V-8.636a8.846,8.846,0,0,1-2.516,6.511A8.975,8.975,0,0,1,38.59.408a8.975,8.975,0,0,1-6.664-2.533A8.846,8.846,0,0,1,29.41-8.636V-23.8h4.08V-9.146A6.17,6.17,0,0,0,34.8-5a4.714,4.714,0,0,0,3.791,1.53A4.714,4.714,0,0,0,42.381-5,6.17,6.17,0,0,0,43.69-9.146ZM53.278,0V-23.8h4.08V0Zm8.7-23.8h18.19L67.8-3.876h11.7V0H60.826L73.27-19.924H61.982Zm45.9,10.744h3.91a22.839,22.839,0,0,1-.34,4.165,10.011,10.011,0,0,1-.68,2.465l-.374.646,3.876,3.4L111.894.408l-3.638-3.23A9.238,9.238,0,0,1,104.89-.476,11.326,11.326,0,0,1,100.4.408a8.487,8.487,0,0,1-5.661-1.9A5.538,5.538,0,0,1,92.48-5.78a5.723,5.723,0,0,1,.969-3.23,16.417,16.417,0,0,1,3.723-3.536q-3.332-3.06-3.332-5.576a5.782,5.782,0,0,1,1.836-4.3,6.408,6.408,0,0,1,4.658-1.785,6.408,6.408,0,0,1,4.658,1.785,5.782,5.782,0,0,1,1.836,4.3,4.814,4.814,0,0,1-.8,2.686,16.533,16.533,0,0,1-3.043,3.128l4.386,3.876Q107.882-9.18,107.882-13.056ZM100.4-3.332a6.783,6.783,0,0,0,5-2.006l-5.406-4.726a34.2,34.2,0,0,0-2.856,2.6,2.155,2.155,0,0,0-.578,1.445,2.223,2.223,0,0,0,1.156,1.955A4.918,4.918,0,0,0,100.4-3.332Zm-2.618-14.79a1.73,1.73,0,0,0,.034.34q.034.17.068.323a1.1,1.1,0,0,0,.136.323q.1.17.17.289a2.477,2.477,0,0,0,.238.323l.255.306q.085.1.323.34t.357.34q.119.1.425.391t.442.425a14.565,14.565,0,0,0,2.108-2.057,2.293,2.293,0,0,0,.51-1.343,2.111,2.111,0,0,0-.782-1.683,2.618,2.618,0,0,0-1.734-.663,2.641,2.641,0,0,0-1.785.663A2.13,2.13,0,0,0,97.784-18.122ZM137.5-3.4a8.433,8.433,0,0,0,2.261-.306,7.483,7.483,0,0,0,1.819-.731,13.822,13.822,0,0,0,1.275-.85,4.423,4.423,0,0,0,.8-.731l.272-.306,2.72,2.686q-.136.17-.374.442a10.615,10.615,0,0,1-1.1.969A11.914,11.914,0,0,1,143.31-1a12.988,12.988,0,0,1-2.55.969A11.945,11.945,0,0,1,137.5.408a11.578,11.578,0,0,1-8.619-3.519,12.05,12.05,0,0,1-3.451-8.789,12.049,12.049,0,0,1,3.451-8.789,11.578,11.578,0,0,1,8.619-3.519,12.185,12.185,0,0,1,3.094.391,10.862,10.862,0,0,1,2.482.935,18.194,18.194,0,0,1,1.751,1.088,9.3,9.3,0,0,1,1.139.918l.34.408-2.754,2.686q-.1-.1-.255-.289a5.008,5.008,0,0,0-.748-.629,9.493,9.493,0,0,0-1.241-.782,8.682,8.682,0,0,0-1.683-.629A7.879,7.879,0,0,0,137.5-20.4a7.323,7.323,0,0,0-5.678,2.482,8.655,8.655,0,0,0-2.244,6.018,8.655,8.655,0,0,0,2.244,6.018A7.323,7.323,0,0,0,137.5-3.4ZM149.77,0V-23.8h7.82a7.936,7.936,0,0,1,5.712,2.074,7.047,7.047,0,0,1,2.176,5.338,7.538,7.538,0,0,1-1.394,4.607,6.772,6.772,0,0,1-3.91,2.533L166.124,0h-4.76L155.72-8.976h-1.87V0Zm7.31-12.852a4.872,4.872,0,0,0,3.128-.9,3.18,3.18,0,0,0,1.122-2.635,3.18,3.18,0,0,0-1.122-2.635,4.872,4.872,0,0,0-3.128-.9h-3.23v7.072Zm14.569-7.854a11.536,11.536,0,0,1,8.619-3.5,11.536,11.536,0,0,1,8.619,3.5A12.1,12.1,0,0,1,192.3-11.9a12.1,12.1,0,0,1-3.417,8.806,11.536,11.536,0,0,1-8.619,3.5,11.536,11.536,0,0,1-8.619-3.5,12.1,12.1,0,0,1-3.417-8.806A12.1,12.1,0,0,1,171.649-20.706Zm2.924,14.79a7.29,7.29,0,0,0,5.7,2.448,7.29,7.29,0,0,0,5.7-2.448,8.646,8.646,0,0,0,2.193-5.984,8.646,8.646,0,0,0-2.193-5.984,7.29,7.29,0,0,0-5.7-2.448,7.29,7.29,0,0,0-5.7,2.448A8.646,8.646,0,0,0,172.38-11.9,8.646,8.646,0,0,0,174.573-5.916Zm33.3-.306a2.482,2.482,0,0,0-.986-2.125,13.88,13.88,0,0,0-3.366-1.581,25.168,25.168,0,0,1-2.669-1.105,15.179,15.179,0,0,1-2.329-1.445,5.937,5.937,0,0,1-1.819-2.159,6.329,6.329,0,0,1-.629-2.839,6.266,6.266,0,0,1,2.176-4.692,7.873,7.873,0,0,1,5.61-2.04,9.393,9.393,0,0,1,2.7.391,8.472,8.472,0,0,1,2.176.952q.867.561,1.547,1.1a5.719,5.719,0,0,1,.986.952l.34.374-2.822,2.788q-.068-.1-.221-.289a7.438,7.438,0,0,0-.663-.646,9.61,9.61,0,0,0-1.037-.816,5.866,5.866,0,0,0-1.36-.646,5.007,5.007,0,0,0-1.649-.289,4.038,4.038,0,0,0-2.584.833,2.5,2.5,0,0,0-1.054,2.023,2.368,2.368,0,0,0,.7,1.683,4.624,4.624,0,0,0,1.411,1.054q.714.323,2.788,1.1.17.068.238.1a23.761,23.761,0,0,1,2.618,1.122,10.978,10.978,0,0,1,2.057,1.394,5.3,5.3,0,0,1,1.5,2.04,7.152,7.152,0,0,1,.493,2.754,5.713,5.713,0,0,1-2.38,4.879A9.711,9.711,0,0,1,203.728.408a10.2,10.2,0,0,1-3.179-.493,8.47,8.47,0,0,1-2.465-1.207A15.685,15.685,0,0,1,196.4-2.737a7.95,7.95,0,0,1-1.037-1.207l-.34-.51,3.06-2.584a3.066,3.066,0,0,0,.238.374q.17.238.714.867a7.412,7.412,0,0,0,1.156,1.088,7.121,7.121,0,0,0,1.564.85,5.143,5.143,0,0,0,1.972.391,5.815,5.815,0,0,0,2.924-.7A2.233,2.233,0,0,0,207.876-6.222Zm20.23,0a2.482,2.482,0,0,0-.986-2.125,13.88,13.88,0,0,0-3.366-1.581,25.168,25.168,0,0,1-2.669-1.105,15.179,15.179,0,0,1-2.329-1.445,5.937,5.937,0,0,1-1.819-2.159,6.329,6.329,0,0,1-.629-2.839,6.266,6.266,0,0,1,2.176-4.692,7.873,7.873,0,0,1,5.61-2.04,9.393,9.393,0,0,1,2.7.391,8.472,8.472,0,0,1,2.176.952q.867.561,1.547,1.1a5.72,5.72,0,0,1,.986.952l.34.374-2.822,2.788q-.068-.1-.221-.289a7.438,7.438,0,0,0-.663-.646A9.61,9.61,0,0,0,227.1-19.4a5.866,5.866,0,0,0-1.36-.646,5.007,5.007,0,0,0-1.649-.289,4.038,4.038,0,0,0-2.584.833,2.5,2.5,0,0,0-1.054,2.023,2.368,2.368,0,0,0,.7,1.683,4.624,4.624,0,0,0,1.411,1.054q.714.323,2.788,1.1.17.068.238.1a23.761,23.761,0,0,1,2.618,1.122,10.978,10.978,0,0,1,2.057,1.394,5.3,5.3,0,0,1,1.5,2.04,7.152,7.152,0,0,1,.493,2.754,5.713,5.713,0,0,1-2.38,4.879A9.711,9.711,0,0,1,223.958.408a10.2,10.2,0,0,1-3.179-.493,8.47,8.47,0,0,1-2.465-1.207,15.685,15.685,0,0,1-1.683-1.445,7.95,7.95,0,0,1-1.037-1.207l-.34-.51,3.06-2.584a3.066,3.066,0,0,0,.238.374q.17.238.714.867a7.412,7.412,0,0,0,1.156,1.088,7.121,7.121,0,0,0,1.564.85,5.143,5.143,0,0,0,1.972.391,5.815,5.815,0,0,0,2.924-.7A2.233,2.233,0,0,0,228.106-6.222Z" transform="translate(746.5 182.5)" fill="#75aeca" opacity="0.86"/>
      <path id="Path_692" data-name="Path 692" d="M13.668-3.4a11.63,11.63,0,0,0,2.7-.289,5.381,5.381,0,0,0,1.649-.595l.442-.272V-9.588H13.056V-13.4h9.418V-2.584a4.3,4.3,0,0,1-.374.323q-.238.187-1.071.714a11.853,11.853,0,0,1-1.768.918,14.186,14.186,0,0,1-2.448.714,15.026,15.026,0,0,1-3.145.323A12.238,12.238,0,0,1,4.777-3.128,11.768,11.768,0,0,1,1.156-11.9a11.867,11.867,0,0,1,3.553-8.789A12,12,0,0,1,13.5-24.208a13.059,13.059,0,0,1,3.145.374,11.513,11.513,0,0,1,2.5.884,14.908,14.908,0,0,1,1.734,1.037,6.878,6.878,0,0,1,1.088.9l.34.374-2.788,2.72a1.992,1.992,0,0,0-.238-.272q-.17-.17-.714-.595a7.04,7.04,0,0,0-1.19-.748,8.8,8.8,0,0,0-1.7-.595A8.673,8.673,0,0,0,13.5-20.4a7.676,7.676,0,0,0-5.865,2.5,8.492,8.492,0,0,0-2.329,6,8.33,8.33,0,0,0,2.414,6A7.946,7.946,0,0,0,13.668-3.4ZM26.758,0V-23.8h7.82a7.936,7.936,0,0,1,5.712,2.074,7.047,7.047,0,0,1,2.176,5.338,7.538,7.538,0,0,1-1.394,4.607,6.772,6.772,0,0,1-3.91,2.533L43.112,0h-4.76L32.708-8.976h-1.87V0Zm7.31-12.852a4.872,4.872,0,0,0,3.128-.9,3.18,3.18,0,0,0,1.122-2.635A3.18,3.18,0,0,0,37.2-19.023a4.872,4.872,0,0,0-3.128-.9h-3.23v7.072Zm14.569-7.854a11.536,11.536,0,0,1,8.619-3.5,11.536,11.536,0,0,1,8.619,3.5A12.1,12.1,0,0,1,69.292-11.9a12.1,12.1,0,0,1-3.417,8.806,11.536,11.536,0,0,1-8.619,3.5,11.536,11.536,0,0,1-8.619-3.5A12.1,12.1,0,0,1,45.22-11.9,12.1,12.1,0,0,1,48.637-20.706Zm2.924,14.79a7.29,7.29,0,0,0,5.695,2.448,7.29,7.29,0,0,0,5.695-2.448A8.646,8.646,0,0,0,65.144-11.9a8.646,8.646,0,0,0-2.193-5.984,7.29,7.29,0,0,0-5.695-2.448,7.29,7.29,0,0,0-5.695,2.448A8.646,8.646,0,0,0,49.368-11.9,8.646,8.646,0,0,0,51.561-5.916Zm35.683-3.23V-23.8h4.08V-8.636a8.846,8.846,0,0,1-2.516,6.511A8.975,8.975,0,0,1,82.144.408,8.975,8.975,0,0,1,75.48-2.125a8.846,8.846,0,0,1-2.516-6.511V-23.8h4.08V-9.146A6.17,6.17,0,0,0,78.353-5a4.714,4.714,0,0,0,3.791,1.53A4.714,4.714,0,0,0,85.935-5,6.17,6.17,0,0,0,87.244-9.146Zm16.694-3.3a4.518,4.518,0,0,0,3.145-1,3.511,3.511,0,0,0,1.1-2.737,3.511,3.511,0,0,0-1.1-2.737,4.518,4.518,0,0,0-3.145-1h-3.5v7.48ZM96.356,0V-23.8h8.092a7.771,7.771,0,0,1,5.695,2.159,7.336,7.336,0,0,1,2.193,5.457,7.336,7.336,0,0,1-2.193,5.457,7.771,7.771,0,0,1-5.695,2.159h-4.012V0ZM133.28-23.8a11.338,11.338,0,0,1,8.466,3.366,11.691,11.691,0,0,1,3.3,8.534,11.691,11.691,0,0,1-3.3,8.534A11.338,11.338,0,0,1,133.28,0H125.6V-23.8Zm.068,19.924a6.965,6.965,0,0,0,5.457-2.346A8.235,8.235,0,0,0,140.9-11.9a8.218,8.218,0,0,0-2.091-5.7,6.988,6.988,0,0,0-5.457-2.329h-3.672V-3.876ZM149.192,0V-23.8h4.08V0ZM170.68-6.222a2.482,2.482,0,0,0-.986-2.125,13.88,13.88,0,0,0-3.366-1.581,25.168,25.168,0,0,1-2.669-1.105,15.179,15.179,0,0,1-2.329-1.445,5.937,5.937,0,0,1-1.819-2.159,6.329,6.329,0,0,1-.629-2.839,6.266,6.266,0,0,1,2.176-4.692,7.873,7.873,0,0,1,5.61-2.04,9.393,9.393,0,0,1,2.7.391,8.472,8.472,0,0,1,2.176.952q.867.561,1.547,1.1a5.72,5.72,0,0,1,.986.952l.34.374L171.6-17.646q-.068-.1-.221-.289a7.438,7.438,0,0,0-.663-.646,9.61,9.61,0,0,0-1.037-.816,5.866,5.866,0,0,0-1.36-.646,5.007,5.007,0,0,0-1.649-.289,4.038,4.038,0,0,0-2.584.833,2.5,2.5,0,0,0-1.054,2.023,2.368,2.368,0,0,0,.7,1.683,4.624,4.624,0,0,0,1.411,1.054q.714.323,2.788,1.1.17.068.238.1a23.761,23.761,0,0,1,2.618,1.122,10.978,10.978,0,0,1,2.057,1.394,5.3,5.3,0,0,1,1.5,2.04,7.152,7.152,0,0,1,.493,2.754,5.713,5.713,0,0,1-2.38,4.879A9.711,9.711,0,0,1,166.532.408a10.2,10.2,0,0,1-3.179-.493,8.47,8.47,0,0,1-2.465-1.207,15.685,15.685,0,0,1-1.683-1.445,7.95,7.95,0,0,1-1.037-1.207l-.34-.51,3.06-2.584a3.066,3.066,0,0,0,.238.374q.17.238.714.867A7.412,7.412,0,0,0,163-4.709a7.121,7.121,0,0,0,1.564.85,5.143,5.143,0,0,0,1.972.391,5.815,5.815,0,0,0,2.924-.7A2.233,2.233,0,0,0,170.68-6.222ZM189.72-3.4a8.433,8.433,0,0,0,2.261-.306,7.483,7.483,0,0,0,1.819-.731,13.822,13.822,0,0,0,1.275-.85,4.423,4.423,0,0,0,.8-.731l.272-.306,2.72,2.686q-.136.17-.374.442a10.615,10.615,0,0,1-1.1.969A11.914,11.914,0,0,1,195.534-1a12.988,12.988,0,0,1-2.55.969,11.945,11.945,0,0,1-3.264.442A11.578,11.578,0,0,1,181.1-3.111,12.05,12.05,0,0,1,177.65-11.9a12.05,12.05,0,0,1,3.451-8.789,11.578,11.578,0,0,1,8.619-3.519,12.185,12.185,0,0,1,3.094.391,10.862,10.862,0,0,1,2.482.935,18.194,18.194,0,0,1,1.751,1.088,9.3,9.3,0,0,1,1.139.918l.34.408-2.754,2.686q-.1-.1-.255-.289a5.008,5.008,0,0,0-.748-.629,9.493,9.493,0,0,0-1.241-.782,8.682,8.682,0,0,0-1.683-.629,7.879,7.879,0,0,0-2.125-.289,7.323,7.323,0,0,0-5.678,2.482A8.655,8.655,0,0,0,181.8-11.9a8.655,8.655,0,0,0,2.244,6.018A7.323,7.323,0,0,0,189.72-3.4Zm26.554-5.746V-23.8h4.08V-8.636a8.846,8.846,0,0,1-2.516,6.511A8.975,8.975,0,0,1,211.174.408a8.975,8.975,0,0,1-6.664-2.533,8.846,8.846,0,0,1-2.516-6.511V-23.8h4.08V-9.146A6.17,6.17,0,0,0,207.383-5a4.714,4.714,0,0,0,3.791,1.53A4.714,4.714,0,0,0,214.965-5,6.17,6.17,0,0,0,216.274-9.146Zm21.012,2.924a2.482,2.482,0,0,0-.986-2.125,13.88,13.88,0,0,0-3.366-1.581,25.168,25.168,0,0,1-2.669-1.105,15.179,15.179,0,0,1-2.329-1.445,5.937,5.937,0,0,1-1.819-2.159,6.329,6.329,0,0,1-.629-2.839,6.266,6.266,0,0,1,2.176-4.692,7.873,7.873,0,0,1,5.61-2.04,9.393,9.393,0,0,1,2.7.391,8.472,8.472,0,0,1,2.176.952q.867.561,1.547,1.1a5.72,5.72,0,0,1,.986.952l.34.374L238.2-17.646q-.068-.1-.221-.289a7.438,7.438,0,0,0-.663-.646,9.61,9.61,0,0,0-1.037-.816,5.866,5.866,0,0,0-1.36-.646,5.007,5.007,0,0,0-1.649-.289,4.038,4.038,0,0,0-2.584.833,2.5,2.5,0,0,0-1.054,2.023,2.368,2.368,0,0,0,.7,1.683,4.624,4.624,0,0,0,1.411,1.054q.714.323,2.788,1.1.17.068.238.1a23.761,23.761,0,0,1,2.618,1.122,10.978,10.978,0,0,1,2.057,1.394,5.3,5.3,0,0,1,1.5,2.04,7.152,7.152,0,0,1,.493,2.754,5.713,5.713,0,0,1-2.38,4.879A9.711,9.711,0,0,1,233.138.408a10.2,10.2,0,0,1-3.179-.493,8.47,8.47,0,0,1-2.465-1.207,15.685,15.685,0,0,1-1.683-1.445,7.95,7.95,0,0,1-1.037-1.207l-.34-.51,3.06-2.584a3.066,3.066,0,0,0,.238.374q.17.238.714.867A7.412,7.412,0,0,0,229.6-4.709a7.121,7.121,0,0,0,1.564.85,5.143,5.143,0,0,0,1.972.391,5.815,5.815,0,0,0,2.924-.7A2.233,2.233,0,0,0,237.286-6.222Zm20.23,0a2.482,2.482,0,0,0-.986-2.125,13.88,13.88,0,0,0-3.366-1.581,25.168,25.168,0,0,1-2.669-1.105,15.179,15.179,0,0,1-2.329-1.445,5.937,5.937,0,0,1-1.819-2.159,6.329,6.329,0,0,1-.629-2.839,6.266,6.266,0,0,1,2.176-4.692,7.873,7.873,0,0,1,5.61-2.04,9.394,9.394,0,0,1,2.7.391,8.472,8.472,0,0,1,2.176.952q.867.561,1.547,1.1a5.719,5.719,0,0,1,.986.952l.34.374-2.822,2.788q-.068-.1-.221-.289a7.437,7.437,0,0,0-.663-.646,9.611,9.611,0,0,0-1.037-.816,5.867,5.867,0,0,0-1.36-.646,5.007,5.007,0,0,0-1.649-.289,4.038,4.038,0,0,0-2.584.833,2.5,2.5,0,0,0-1.054,2.023,2.368,2.368,0,0,0,.7,1.683,4.624,4.624,0,0,0,1.411,1.054q.714.323,2.788,1.1.17.068.238.1a23.76,23.76,0,0,1,2.618,1.122,10.979,10.979,0,0,1,2.057,1.394,5.3,5.3,0,0,1,1.5,2.04,7.152,7.152,0,0,1,.493,2.754,5.713,5.713,0,0,1-2.38,4.879A9.711,9.711,0,0,1,253.368.408a10.2,10.2,0,0,1-3.179-.493,8.47,8.47,0,0,1-2.465-1.207,15.685,15.685,0,0,1-1.683-1.445A7.95,7.95,0,0,1,245-3.944l-.34-.51,3.06-2.584a3.066,3.066,0,0,0,.238.374q.17.238.714.867a7.412,7.412,0,0,0,1.156,1.088,7.121,7.121,0,0,0,1.564.85,5.143,5.143,0,0,0,1.972.391,5.815,5.815,0,0,0,2.924-.7A2.233,2.233,0,0,0,257.516-6.222ZM266.322,0V-23.8h4.08V0Zm11.645-20.706a11.536,11.536,0,0,1,8.619-3.5,11.536,11.536,0,0,1,8.619,3.5,12.1,12.1,0,0,1,3.417,8.806A12.1,12.1,0,0,1,295.2-3.094a11.536,11.536,0,0,1-8.619,3.5,11.536,11.536,0,0,1-8.619-3.5A12.1,12.1,0,0,1,274.55-11.9,12.1,12.1,0,0,1,277.967-20.706Zm2.924,14.79a7.29,7.29,0,0,0,5.695,2.448,7.29,7.29,0,0,0,5.7-2.448,8.646,8.646,0,0,0,2.193-5.984,8.646,8.646,0,0,0-2.193-5.984,7.29,7.29,0,0,0-5.7-2.448,7.29,7.29,0,0,0-5.695,2.448A8.647,8.647,0,0,0,278.7-11.9,8.646,8.646,0,0,0,280.891-5.916Zm21.4-17.884h3.672l11.9,16.388V-23.8h4.08V0h-3.672l-11.9-16.354V0h-4.08Z" transform="translate(1044.5 183.5)" fill="#64a1c0" opacity="0.86"/>
      <path id="Path_691" data-name="Path 691" d="M10.2-23.8a11.338,11.338,0,0,1,8.466,3.366,11.691,11.691,0,0,1,3.3,8.534,11.691,11.691,0,0,1-3.3,8.534A11.338,11.338,0,0,1,10.2,0H2.516V-23.8Zm.068,19.924a6.965,6.965,0,0,0,5.457-2.346A8.235,8.235,0,0,0,17.816-11.9a8.218,8.218,0,0,0-2.091-5.7,6.988,6.988,0,0,0-5.457-2.329H6.6V-3.876ZM29.716-19.924v5.78h9.52v3.876h-9.52v6.392h10.54V0H25.636V-23.8H40.052v3.876ZM56.1-6.222a2.482,2.482,0,0,0-.986-2.125,13.88,13.88,0,0,0-3.366-1.581,25.17,25.17,0,0,1-2.669-1.105,15.18,15.18,0,0,1-2.329-1.445,5.936,5.936,0,0,1-1.819-2.159,6.329,6.329,0,0,1-.629-2.839,6.266,6.266,0,0,1,2.176-4.692,7.873,7.873,0,0,1,5.61-2.04,9.394,9.394,0,0,1,2.7.391,8.472,8.472,0,0,1,2.176.952q.867.561,1.547,1.1a5.719,5.719,0,0,1,.986.952l.34.374-2.822,2.788q-.068-.1-.221-.289a7.438,7.438,0,0,0-.663-.646A9.61,9.61,0,0,0,55.1-19.4a5.866,5.866,0,0,0-1.36-.646,5.007,5.007,0,0,0-1.649-.289A4.038,4.038,0,0,0,49.5-19.5a2.5,2.5,0,0,0-1.054,2.023,2.368,2.368,0,0,0,.7,1.683,4.624,4.624,0,0,0,1.411,1.054q.714.323,2.788,1.1.17.068.238.1A23.761,23.761,0,0,1,56.2-12.41a10.978,10.978,0,0,1,2.057,1.394,5.3,5.3,0,0,1,1.5,2.04,7.152,7.152,0,0,1,.493,2.754,5.713,5.713,0,0,1-2.38,4.879A9.711,9.711,0,0,1,51.952.408a10.2,10.2,0,0,1-3.179-.493,8.47,8.47,0,0,1-2.465-1.207,15.684,15.684,0,0,1-1.683-1.445,7.949,7.949,0,0,1-1.037-1.207l-.34-.51,3.06-2.584a3.065,3.065,0,0,0,.238.374q.17.238.714.867a7.413,7.413,0,0,0,1.156,1.088,7.121,7.121,0,0,0,1.564.85,5.143,5.143,0,0,0,1.972.391,5.815,5.815,0,0,0,2.924-.7A2.233,2.233,0,0,0,56.1-6.222ZM64.906,0V-23.8h4.08V0Zm20.74-3.4a11.63,11.63,0,0,0,2.7-.289A5.381,5.381,0,0,0,90-4.284l.442-.272V-9.588H85.034V-13.4h9.418V-2.584a4.3,4.3,0,0,1-.374.323q-.238.187-1.071.714a11.853,11.853,0,0,1-1.768.918,14.186,14.186,0,0,1-2.448.714,15.026,15.026,0,0,1-3.145.323,12.238,12.238,0,0,1-8.891-3.536A11.768,11.768,0,0,1,73.134-11.9a11.866,11.866,0,0,1,3.553-8.789,12,12,0,0,1,8.789-3.519,13.059,13.059,0,0,1,3.145.374,11.513,11.513,0,0,1,2.5.884,14.908,14.908,0,0,1,1.734,1.037,6.877,6.877,0,0,1,1.088.9l.34.374-2.788,2.72a1.992,1.992,0,0,0-.238-.272q-.17-.17-.714-.595a7.041,7.041,0,0,0-1.19-.748,8.8,8.8,0,0,0-1.7-.595,8.673,8.673,0,0,0-2.176-.272,7.676,7.676,0,0,0-5.865,2.5,8.492,8.492,0,0,0-2.329,6,8.33,8.33,0,0,0,2.414,6A7.946,7.946,0,0,0,85.646-3.4Zm13.09-20.4h3.672l11.9,16.388V-23.8h4.08V0h-3.672l-11.9-16.354V0h-4.08Z" transform="translate(1431.5 182.5)" fill="#4599c6" opacity="0.86"/>
      <path id="Path_690" data-name="Path 690" d="M10.1-12.444a4.518,4.518,0,0,0,3.145-1,3.511,3.511,0,0,0,1.1-2.737,3.511,3.511,0,0,0-1.1-2.737,4.518,4.518,0,0,0-3.145-1H6.6v7.48ZM2.516,0V-23.8h8.092a7.771,7.771,0,0,1,5.7,2.159A7.336,7.336,0,0,1,18.5-16.184,7.336,7.336,0,0,1,16.3-10.727a7.771,7.771,0,0,1-5.7,2.159H6.6V0Zm19.72,0V-23.8h4.08V0Zm14.11,0V-19.924H29.784V-23.8h17.2v3.876H40.426V0ZM60.01-3.4a8.433,8.433,0,0,0,2.261-.306,7.483,7.483,0,0,0,1.819-.731,13.821,13.821,0,0,0,1.275-.85,4.422,4.422,0,0,0,.8-.731l.272-.306,2.72,2.686q-.136.17-.374.442a10.616,10.616,0,0,1-1.105.969A11.913,11.913,0,0,1,65.824-1a12.988,12.988,0,0,1-2.55.969A11.945,11.945,0,0,1,60.01.408a11.578,11.578,0,0,1-8.619-3.519A12.049,12.049,0,0,1,47.94-11.9a12.049,12.049,0,0,1,3.451-8.789,11.578,11.578,0,0,1,8.619-3.519,12.185,12.185,0,0,1,3.094.391,10.862,10.862,0,0,1,2.482.935,18.2,18.2,0,0,1,1.751,1.088,9.3,9.3,0,0,1,1.139.918l.34.408-2.754,2.686q-.1-.1-.255-.289a5.007,5.007,0,0,0-.748-.629,9.494,9.494,0,0,0-1.241-.782,8.682,8.682,0,0,0-1.683-.629A7.879,7.879,0,0,0,60.01-20.4a7.323,7.323,0,0,0-5.678,2.482A8.655,8.655,0,0,0,52.088-11.9a8.655,8.655,0,0,0,2.244,6.018A7.323,7.323,0,0,0,60.01-3.4ZM86.53-14.11V-23.8h4.08V0H86.53V-10.234H76.364V0h-4.08V-23.8h4.08v9.69Z" transform="translate(1607.5 182.5)" fill="#328fc3" opacity="0.86"/>
      <path id="Path_699" data-name="Path 699" d="M9.657,30.409c5.237,0,8.31-4.4,8.31-11.368,0-6.917-3.088-11.292-8.31-11.292-5.207,0-8.34,4.39-8.34,11.307C1.317,26.019,4.42,30.409,9.657,30.409Zm0-2.846c-3.118,0-4.9-3.239-4.9-8.507,0-5.192,1.816-8.461,4.9-8.461s4.889,3.254,4.889,8.461C14.546,24.339,12.775,27.563,9.657,27.563Zm20.214,2.846c5.479,0,8.719-4.329,8.719-11.64a14.019,14.019,0,0,0-1.347-6.448,7.738,7.738,0,0,0-7.25-4.586c-4.617,0-7.977,3.179-7.977,7.553a7.05,7.05,0,0,0,7.25,7.22,6.233,6.233,0,0,0,5.994-3.572h.061c0,5.51-2,8.658-5.4,8.658a4.23,4.23,0,0,1-4.193-2.982H22.318C22.968,28.078,25.981,30.409,29.871,30.409Zm.121-10.671a4.451,4.451,0,0,1-4.6-4.556,4.64,4.64,0,0,1,9.279.061A4.475,4.475,0,0,1,29.992,19.737Zm15.551,6.887a1.983,1.983,0,1,0-1.983-1.983A1.97,1.97,0,0,0,45.543,26.625Zm0-11.035a1.983,1.983,0,1,0-1.983-1.983A1.961,1.961,0,0,0,45.543,15.59ZM60.822,30.409c5.237,0,8.31-4.4,8.31-11.368,0-6.917-3.088-11.292-8.31-11.292-5.207,0-8.34,4.39-8.34,11.307C52.482,26.019,55.585,30.409,60.822,30.409Zm0-2.846c-3.118,0-4.9-3.239-4.9-8.507,0-5.192,1.816-8.461,4.9-8.461s4.889,3.254,4.889,8.461C65.712,24.339,63.941,27.563,60.822,27.563Zm20.849,2.846c5.237,0,8.31-4.4,8.31-11.368,0-6.917-3.088-11.292-8.31-11.292-5.207,0-8.34,4.39-8.34,11.307C73.331,26.019,76.434,30.409,81.672,30.409Zm0-2.846c-3.118,0-4.9-3.239-4.9-8.507,0-5.192,1.816-8.461,4.9-8.461s4.889,3.254,4.889,8.461C86.561,24.339,84.79,27.563,81.672,27.563Z" transform="translate(211 236)" fill="#506673"/>
      <path id="Path_700" data-name="Path 700" d="M7.22,30h3.315V8.158H7.19L1.438,12.245v3.33l5.707-4.057H7.22Zm18.14.409c5.237,0,8.31-4.4,8.31-11.368,0-6.917-3.088-11.292-8.31-11.292-5.207,0-8.34,4.39-8.34,11.307C17.02,26.019,20.123,30.409,25.36,30.409Zm0-2.846c-3.118,0-4.9-3.239-4.9-8.507,0-5.192,1.816-8.461,4.9-8.461s4.889,3.254,4.889,8.461C30.249,24.339,28.478,27.563,25.36,27.563Zm15.264-.938a1.983,1.983,0,1,0-1.983-1.983A1.97,1.97,0,0,0,40.624,26.625Zm0-11.035a1.983,1.983,0,1,0-1.983-1.983A1.961,1.961,0,0,0,40.624,15.59ZM55.9,30.409c5.237,0,8.31-4.4,8.31-11.368,0-6.917-3.088-11.292-8.31-11.292-5.207,0-8.34,4.39-8.34,11.307C47.563,26.019,50.666,30.409,55.9,30.409Zm0-2.846c-3.118,0-4.9-3.239-4.9-8.507,0-5.192,1.816-8.461,4.9-8.461s4.889,3.254,4.889,8.461C60.792,24.339,59.021,27.563,55.9,27.563Zm20.849,2.846c5.237,0,8.31-4.4,8.31-11.368,0-6.917-3.088-11.292-8.31-11.292-5.207,0-8.34,4.39-8.34,11.307C68.412,26.019,71.515,30.409,76.752,30.409Zm0-2.846c-3.118,0-4.9-3.239-4.9-8.507,0-5.192,1.816-8.461,4.9-8.461s4.889,3.254,4.889,8.461C81.641,24.339,79.87,27.563,76.752,27.563Z" transform="translate(211 302)" fill="#506673"/>
      <path id="Path_701" data-name="Path 701" d="M7.22,30h3.315V8.158H7.19L1.438,12.245v3.33l5.707-4.057H7.22Zm15.7,0h3.315V8.158H22.893l-5.752,4.087v3.33l5.707-4.057h.076Zm12.554-3.375a1.983,1.983,0,1,0-1.983-1.983A1.97,1.97,0,0,0,35.477,26.625Zm0-11.035a1.983,1.983,0,1,0-1.983-1.983A1.961,1.961,0,0,0,35.477,15.59ZM50.756,30.409c5.237,0,8.31-4.4,8.31-11.368,0-6.917-3.088-11.292-8.31-11.292-5.207,0-8.34,4.39-8.34,11.307C42.416,26.019,45.519,30.409,50.756,30.409Zm0-2.846c-3.118,0-4.9-3.239-4.9-8.507,0-5.192,1.816-8.461,4.9-8.461s4.889,3.254,4.889,8.461C55.646,24.339,53.875,27.563,50.756,27.563Zm20.849,2.846c5.237,0,8.31-4.4,8.31-11.368,0-6.917-3.088-11.292-8.31-11.292-5.207,0-8.34,4.39-8.34,11.307C63.265,26.019,66.368,30.409,71.606,30.409Zm0-2.846c-3.118,0-4.9-3.239-4.9-8.507,0-5.192,1.816-8.461,4.9-8.461s4.889,3.254,4.889,8.461C76.495,24.339,74.724,27.563,71.606,27.563Z" transform="translate(210 368)" fill="#506673"/>
      <path id="Path_703" data-name="Path 703" d="M7.22,30h3.315V8.158H7.19L1.438,12.245v3.33l5.707-4.057H7.22Zm10-15.439v.03h3.209v-.045a4.012,4.012,0,0,1,4.193-4,3.745,3.745,0,0,1,4.026,3.481c0,1.71-.7,2.861-3.36,5.631L17.4,27.7V30h14.94V27.139H21.969v-.076l5.464-5.495c3.194-3.27,4.556-5.162,4.556-7.7,0-3.466-3.1-6.115-7.266-6.115C20.38,7.749,17.217,10.625,17.217,14.561Zm22.06,12.064a1.983,1.983,0,1,0-1.983-1.983A1.97,1.97,0,0,0,39.277,26.625Zm0-11.035a1.983,1.983,0,1,0-1.983-1.983A1.961,1.961,0,0,0,39.277,15.59ZM54.556,30.409c5.237,0,8.31-4.4,8.31-11.368,0-6.917-3.088-11.292-8.31-11.292-5.207,0-8.34,4.39-8.34,11.307C46.215,26.019,49.318,30.409,54.556,30.409Zm0-2.846c-3.118,0-4.9-3.239-4.9-8.507,0-5.192,1.816-8.461,4.9-8.461s4.889,3.254,4.889,8.461C59.445,24.339,57.674,27.563,54.556,27.563Zm20.849,2.846c5.237,0,8.31-4.4,8.31-11.368,0-6.917-3.088-11.292-8.31-11.292-5.207,0-8.34,4.39-8.34,11.307C67.065,26.019,70.168,30.409,75.405,30.409Zm0-2.846c-3.118,0-4.9-3.239-4.9-8.507,0-5.192,1.816-8.461,4.9-8.461s4.889,3.254,4.889,8.461C80.294,24.339,78.523,27.563,75.405,27.563Z" transform="translate(211 500)" fill="#506673"/>
      <path id="Path_704" data-name="Path 704" d="M7.22,30h3.315V8.158H7.19L1.438,12.245v3.33l5.707-4.057H7.22Zm10-15.439v.03h3.209v-.045a4.012,4.012,0,0,1,4.193-4,3.745,3.745,0,0,1,4.026,3.481c0,1.71-.7,2.861-3.36,5.631L17.4,27.7V30h14.94V27.139H21.969v-.076l5.464-5.495c3.194-3.27,4.556-5.162,4.556-7.7,0-3.466-3.1-6.115-7.266-6.115C20.38,7.749,17.217,10.625,17.217,14.561Zm22.06,12.064a1.983,1.983,0,1,0-1.983-1.983A1.97,1.97,0,0,0,39.277,26.625Zm0-11.035a1.983,1.983,0,1,0-1.983-1.983A1.961,1.961,0,0,0,39.277,15.59Zm12.07,4.526h2.725c2.876,0,4.662,1.453,4.662,3.814,0,2.134-1.907,3.648-4.571,3.648-2.755,0-4.48-1.438-4.692-3.527H46.215c.212,3.769,3.239,6.357,7.947,6.357,4.556,0,8.022-2.619,8.022-6.433,0-3.058-2.119-5.071-5.4-5.3v-.061a5.1,5.1,0,0,0,4.5-5.162c0-3.36-3.012-5.707-7.145-5.707-4.329,0-7.22,2.467-7.478,6.3h3.194a3.792,3.792,0,0,1,4.132-3.512c2.588,0,3.981,1.347,3.981,3.375,0,2.059-1.62,3.542-3.981,3.542H51.347ZM74.875,30.409c5.237,0,8.31-4.4,8.31-11.368,0-6.917-3.088-11.292-8.31-11.292-5.207,0-8.34,4.39-8.34,11.307C66.535,26.019,69.638,30.409,74.875,30.409Zm0-2.846c-3.118,0-4.9-3.239-4.9-8.507,0-5.192,1.816-8.461,4.9-8.461s4.889,3.254,4.889,8.461C79.764,24.339,77.993,27.563,74.875,27.563Z" transform="translate(210 566)" fill="#506673"/>
      <path id="Path_705" data-name="Path 705" d="M7.22,30h3.315V8.158H7.19L1.438,12.245v3.33l5.707-4.057H7.22Zm12.554-3.375a1.983,1.983,0,1,0-1.983-1.983A1.97,1.97,0,0,0,19.775,26.625Zm0-11.035a1.983,1.983,0,1,0-1.983-1.983A1.961,1.961,0,0,0,19.775,15.59ZM35.054,30.409c5.237,0,8.31-4.4,8.31-11.368,0-6.917-3.088-11.292-8.31-11.292-5.207,0-8.34,4.39-8.34,11.307C26.713,26.019,29.816,30.409,35.054,30.409Zm0-2.846c-3.118,0-4.9-3.239-4.9-8.507,0-5.192,1.816-8.461,4.9-8.461s4.889,3.254,4.889,8.461C39.943,24.339,38.172,27.563,35.054,27.563ZM55.9,30.409c5.237,0,8.31-4.4,8.31-11.368,0-6.917-3.088-11.292-8.31-11.292-5.207,0-8.34,4.39-8.34,11.307C47.563,26.019,50.666,30.409,55.9,30.409Zm0-2.846c-3.118,0-4.9-3.239-4.9-8.507,0-5.192,1.816-8.461,4.9-8.461s4.889,3.254,4.889,8.461C60.792,24.339,59.021,27.563,55.9,27.563Z" transform="translate(218 632)" fill="#506673"/>
      <path id="Path_706" data-name="Path 706" d="M1.514,14.561v.03H4.723v-.045a4.012,4.012,0,0,1,4.193-4,3.745,3.745,0,0,1,4.026,3.481c0,1.71-.7,2.861-3.36,5.631L1.7,27.7V30h14.94V27.139H6.267v-.076l5.464-5.495c3.194-3.27,4.556-5.162,4.556-7.7,0-3.466-3.1-6.115-7.266-6.115C4.677,7.749,1.514,10.625,1.514,14.561Zm22.06,12.064a1.983,1.983,0,1,0-1.983-1.983A1.97,1.97,0,0,0,23.574,26.625Zm0-11.035a1.983,1.983,0,1,0-1.983-1.983A1.961,1.961,0,0,0,23.574,15.59ZM38.853,30.409c5.237,0,8.31-4.4,8.31-11.368,0-6.917-3.088-11.292-8.31-11.292-5.207,0-8.34,4.39-8.34,11.307C30.513,26.019,33.616,30.409,38.853,30.409Zm0-2.846c-3.118,0-4.9-3.239-4.9-8.507,0-5.192,1.816-8.461,4.9-8.461s4.889,3.254,4.889,8.461C43.742,24.339,41.971,27.563,38.853,27.563ZM59.7,30.409c5.237,0,8.31-4.4,8.31-11.368,0-6.917-3.088-11.292-8.31-11.292-5.207,0-8.34,4.39-8.34,11.307C51.362,26.019,54.465,30.409,59.7,30.409Zm0-2.846c-3.118,0-4.9-3.239-4.9-8.507,0-5.192,1.816-8.461,4.9-8.461s4.889,3.254,4.889,8.461C64.591,24.339,62.82,27.563,59.7,27.563Z" transform="translate(218 698)" fill="#506673"/>
      <path id="Path_707" data-name="Path 707" d="M1.514,14.561v.03H4.723v-.045a4.012,4.012,0,0,1,4.193-4,3.745,3.745,0,0,1,4.026,3.481c0,1.71-.7,2.861-3.36,5.631L1.7,27.7V30h14.94V27.139H6.267v-.076l5.464-5.495c3.194-3.27,4.556-5.162,4.556-7.7,0-3.466-3.1-6.115-7.266-6.115C4.677,7.749,1.514,10.625,1.514,14.561Zm22.06,12.064a1.983,1.983,0,1,0-1.983-1.983A1.97,1.97,0,0,0,23.574,26.625Zm0-11.035a1.983,1.983,0,1,0-1.983-1.983A1.961,1.961,0,0,0,23.574,15.59Zm12.07,4.526h2.725c2.876,0,4.662,1.453,4.662,3.814,0,2.134-1.907,3.648-4.571,3.648-2.755,0-4.48-1.438-4.692-3.527H30.513c.212,3.769,3.239,6.357,7.947,6.357,4.556,0,8.022-2.619,8.022-6.433,0-3.058-2.119-5.071-5.4-5.3v-.061a5.1,5.1,0,0,0,4.5-5.162c0-3.36-3.012-5.707-7.145-5.707-4.329,0-7.22,2.467-7.478,6.3h3.194a3.792,3.792,0,0,1,4.132-3.512c2.588,0,3.981,1.347,3.981,3.375,0,2.059-1.62,3.542-3.981,3.542H35.644ZM59.172,30.409c5.237,0,8.31-4.4,8.31-11.368,0-6.917-3.088-11.292-8.31-11.292-5.207,0-8.34,4.39-8.34,11.307C50.832,26.019,53.935,30.409,59.172,30.409Zm0-2.846c-3.118,0-4.9-3.239-4.9-8.507,0-5.192,1.816-8.461,4.9-8.461s4.889,3.254,4.889,8.461C64.062,24.339,62.291,27.563,59.172,27.563Z" transform="translate(217 764)" fill="#506673"/>
      <path id="Path_708" data-name="Path 708" d="M6.448,20.116H9.173c2.876,0,4.662,1.453,4.662,3.814,0,2.134-1.907,3.648-4.571,3.648-2.755,0-4.48-1.438-4.692-3.527H1.317c.212,3.769,3.239,6.357,7.947,6.357,4.556,0,8.022-2.619,8.022-6.433,0-3.058-2.119-5.071-5.4-5.3v-.061a5.1,5.1,0,0,0,4.5-5.162c0-3.36-3.012-5.707-7.145-5.707-4.329,0-7.22,2.467-7.478,6.3H4.95a3.792,3.792,0,0,1,4.132-3.512c2.588,0,3.981,1.347,3.981,3.375,0,2.059-1.62,3.542-3.981,3.542H6.448Zm17.943,6.509a1.983,1.983,0,1,0-1.983-1.983A1.97,1.97,0,0,0,24.391,26.625Zm0-11.035a1.983,1.983,0,1,0-1.983-1.983A1.961,1.961,0,0,0,24.391,15.59ZM39.67,30.409c5.237,0,8.31-4.4,8.31-11.368,0-6.917-3.088-11.292-8.31-11.292-5.207,0-8.34,4.39-8.34,11.307C31.33,26.019,34.433,30.409,39.67,30.409Zm0-2.846c-3.118,0-4.9-3.239-4.9-8.507,0-5.192,1.816-8.461,4.9-8.461s4.889,3.254,4.889,8.461C44.559,24.339,42.788,27.563,39.67,27.563ZM60.52,30.409c5.237,0,8.31-4.4,8.31-11.368,0-6.917-3.088-11.292-8.31-11.292-5.207,0-8.34,4.39-8.34,11.307C52.179,26.019,55.282,30.409,60.52,30.409Zm0-2.846c-3.118,0-4.9-3.239-4.9-8.507,0-5.192,1.816-8.461,4.9-8.461s4.889,3.254,4.889,8.461C65.409,24.339,63.638,27.563,60.52,27.563Z" transform="translate(218 830)" fill="#506673"/>
      <path id="Path_709" data-name="Path 709" d="M6.448,20.116H9.173c2.876,0,4.662,1.453,4.662,3.814,0,2.134-1.907,3.648-4.571,3.648-2.755,0-4.48-1.438-4.692-3.527H1.317c.212,3.769,3.239,6.357,7.947,6.357,4.556,0,8.022-2.619,8.022-6.433,0-3.058-2.119-5.071-5.4-5.3v-.061a5.1,5.1,0,0,0,4.5-5.162c0-3.36-3.012-5.707-7.145-5.707-4.329,0-7.22,2.467-7.478,6.3H4.95a3.792,3.792,0,0,1,4.132-3.512c2.588,0,3.981,1.347,3.981,3.375,0,2.059-1.62,3.542-3.981,3.542H6.448Zm17.943,6.509a1.983,1.983,0,1,0-1.983-1.983A1.97,1.97,0,0,0,24.391,26.625Zm0-11.035a1.983,1.983,0,1,0-1.983-1.983A1.961,1.961,0,0,0,24.391,15.59Zm12.07,4.526h2.725c2.876,0,4.662,1.453,4.662,3.814,0,2.134-1.907,3.648-4.571,3.648-2.755,0-4.48-1.438-4.692-3.527H31.33c.212,3.769,3.239,6.357,7.947,6.357,4.556,0,8.022-2.619,8.022-6.433,0-3.058-2.119-5.071-5.4-5.3v-.061a5.1,5.1,0,0,0,4.5-5.162c0-3.36-3.012-5.707-7.145-5.707-4.329,0-7.22,2.467-7.478,6.3h3.194A3.792,3.792,0,0,1,39.1,10.534c2.588,0,3.981,1.347,3.981,3.375,0,2.059-1.62,3.542-3.981,3.542H36.461ZM59.99,30.409c5.237,0,8.31-4.4,8.31-11.368,0-6.917-3.088-11.292-8.31-11.292-5.207,0-8.34,4.39-8.34,11.307C51.65,26.019,54.753,30.409,59.99,30.409Zm0-2.846c-3.118,0-4.9-3.239-4.9-8.507,0-5.192,1.816-8.461,4.9-8.461s4.889,3.254,4.889,8.461C64.879,24.339,63.108,27.563,59.99,27.563Z" transform="translate(218 896)" fill="#506673"/>
      <path id="Path_710" data-name="Path 710" d="M12.079,30h3.254V25.686h3V22.84h-3V8.158h-4.9A149.508,149.508,0,0,0,1.15,22.719v2.967H12.079ZM4.314,22.81a140.068,140.068,0,0,1,7.735-12.034h.061V22.886h-7.8Zm20.547,3.814a1.983,1.983,0,1,0-1.983-1.983A1.97,1.97,0,0,0,24.861,26.625Zm0-11.035a1.983,1.983,0,1,0-1.983-1.983A1.961,1.961,0,0,0,24.861,15.59ZM40.14,30.409c5.237,0,8.31-4.4,8.31-11.368,0-6.917-3.088-11.292-8.31-11.292-5.207,0-8.34,4.39-8.34,11.307C31.8,26.019,34.9,30.409,40.14,30.409Zm0-2.846c-3.118,0-4.9-3.239-4.9-8.507,0-5.192,1.816-8.461,4.9-8.461s4.889,3.254,4.889,8.461C45.029,24.339,43.258,27.563,40.14,27.563Zm20.849,2.846c5.237,0,8.31-4.4,8.31-11.368,0-6.917-3.088-11.292-8.31-11.292-5.207,0-8.34,4.39-8.34,11.307C52.649,26.019,55.752,30.409,60.989,30.409Zm0-2.846c-3.118,0-4.9-3.239-4.9-8.507,0-5.192,1.816-8.461,4.9-8.461s4.889,3.254,4.889,8.461C65.878,24.339,64.107,27.563,60.989,27.563Z" transform="translate(217 962)" fill="#506673"/>
      <path id="Path_711" data-name="Path 711" d="M12.079,30h3.254V25.686h3V22.84h-3V8.158h-4.9A149.508,149.508,0,0,0,1.15,22.719v2.967H12.079ZM4.314,22.81a140.068,140.068,0,0,1,7.735-12.034h.061V22.886h-7.8Zm20.547,3.814a1.983,1.983,0,1,0-1.983-1.983A1.97,1.97,0,0,0,24.861,26.625Zm0-11.035a1.983,1.983,0,1,0-1.983-1.983A1.961,1.961,0,0,0,24.861,15.59Zm12.07,4.526h2.725c2.876,0,4.662,1.453,4.662,3.814,0,2.134-1.907,3.648-4.571,3.648-2.755,0-4.48-1.438-4.692-3.527H31.8c.212,3.769,3.239,6.357,7.947,6.357,4.556,0,8.022-2.619,8.022-6.433,0-3.058-2.119-5.071-5.4-5.3v-.061a5.1,5.1,0,0,0,4.5-5.162c0-3.36-3.012-5.707-7.145-5.707-4.329,0-7.22,2.467-7.478,6.3h3.194a3.792,3.792,0,0,1,4.132-3.512c2.588,0,3.981,1.347,3.981,3.375,0,2.059-1.62,3.542-3.981,3.542H36.931ZM60.459,30.409c5.237,0,8.31-4.4,8.31-11.368,0-6.917-3.088-11.292-8.31-11.292-5.207,0-8.34,4.39-8.34,11.307C52.119,26.019,55.222,30.409,60.459,30.409Zm0-2.846c-3.118,0-4.9-3.239-4.9-8.507,0-5.192,1.816-8.461,4.9-8.461s4.889,3.254,4.889,8.461C65.348,24.339,63.577,27.563,60.459,27.563Z" transform="translate(218 1028)" fill="#506673"/>
      <path id="Path_712" data-name="Path 712" d="M9.521,30.409c4.708,0,8.007-3.1,8.007-7.583a7.009,7.009,0,0,0-7.205-7.311,5.782,5.782,0,0,0-4.874,2.21H5.374l.605-6.706H16.257V8.158h-13L2.1,20.509h3.1a4.954,4.954,0,0,1,4.375-2.3,4.487,4.487,0,0,1,4.632,4.708,4.458,4.458,0,0,1-4.662,4.662A4.262,4.262,0,0,1,5.01,23.93H1.771C1.968,27.745,5.162,30.409,9.521,30.409ZM24.21,26.625a1.983,1.983,0,1,0-1.983-1.983A1.97,1.97,0,0,0,24.21,26.625Zm0-11.035a1.983,1.983,0,1,0-1.983-1.983A1.961,1.961,0,0,0,24.21,15.59ZM39.489,30.409c5.237,0,8.31-4.4,8.31-11.368,0-6.917-3.088-11.292-8.31-11.292-5.207,0-8.34,4.39-8.34,11.307C31.148,26.019,34.251,30.409,39.489,30.409Zm0-2.846c-3.118,0-4.9-3.239-4.9-8.507,0-5.192,1.816-8.461,4.9-8.461s4.889,3.254,4.889,8.461C44.378,24.339,42.607,27.563,39.489,27.563Zm20.849,2.846c5.237,0,8.31-4.4,8.31-11.368,0-6.917-3.088-11.292-8.31-11.292-5.207,0-8.34,4.39-8.34,11.307C52,26.019,55.1,30.409,60.338,30.409Zm0-2.846c-3.118,0-4.9-3.239-4.9-8.507,0-5.192,1.816-8.461,4.9-8.461s4.889,3.254,4.889,8.461C65.227,24.339,63.456,27.563,60.338,27.563Z" transform="translate(218 1094)" fill="#506673"/>
      <path id="Path_702" data-name="Path 702" d="M7.22,30h3.315V8.158H7.19L1.438,12.245v3.33l5.707-4.057H7.22Zm15.7,0h3.315V8.158H22.893l-5.752,4.087v3.33l5.707-4.057h.076Zm12.554-3.375a1.983,1.983,0,1,0-1.983-1.983A1.97,1.97,0,0,0,35.477,26.625Zm0-11.035a1.983,1.983,0,1,0-1.983-1.983A1.961,1.961,0,0,0,35.477,15.59Zm12.07,4.526h2.725c2.876,0,4.662,1.453,4.662,3.814,0,2.134-1.907,3.648-4.571,3.648-2.755,0-4.48-1.438-4.692-3.527H42.416c.212,3.769,3.239,6.357,7.947,6.357,4.556,0,8.022-2.619,8.022-6.433,0-3.058-2.119-5.071-5.4-5.3v-.061a5.1,5.1,0,0,0,4.5-5.162c0-3.36-3.012-5.707-7.145-5.707-4.329,0-7.22,2.467-7.478,6.3h3.194a3.792,3.792,0,0,1,4.132-3.512c2.588,0,3.981,1.347,3.981,3.375,0,2.059-1.62,3.542-3.981,3.542H47.547ZM71.076,30.409c5.237,0,8.31-4.4,8.31-11.368,0-6.917-3.088-11.292-8.31-11.292-5.207,0-8.34,4.39-8.34,11.307C62.736,26.019,65.839,30.409,71.076,30.409Zm0-2.846c-3.118,0-4.9-3.239-4.9-8.507,0-5.192,1.816-8.461,4.9-8.461s4.889,3.254,4.889,8.461C75.965,24.339,74.194,27.563,71.076,27.563Z" transform="translate(210 434)" fill="#506673"/>
      <g id="Rectangle_119" data-name="Rectangle 119" transform="translate(546 236)" fill="none" stroke="#76bbe2" stroke-width="1">
        <rect width="151" height="198" rx="23" stroke="none"/>
        <rect x="0.5" y="0.5" width="150" height="197" rx="22.5" fill="none"/>
      </g>
      <g id="Rectangle_120" data-name="Rectangle 120" transform="translate(336 434)" fill="none" stroke="#76bbe2" stroke-width="1">
        <rect width="155" height="235" rx="23" stroke="none"/>
        <rect x="0.5" y="0.5" width="154" height="234" rx="22.5" fill="none"/>
      </g>
      <g id="Rectangle_124" data-name="Rectangle 124" transform="translate(747 368)" fill="none" stroke="#76bbe2" stroke-width="1">
        <rect width="234" height="235" rx="23" stroke="none"/>
        <rect x="0.5" y="0.5" width="233" height="234" rx="22.5" fill="none"/>
      </g>
      <g id="Rectangle_125" data-name="Rectangle 125" transform="translate(747 632)" fill="none" stroke="#76bbe2" stroke-width="1">
        <rect width="234" height="235" rx="23" stroke="none"/>
        <rect x="0.5" y="0.5" width="233" height="234" rx="22.5" fill="none"/>
      </g>
      <g id="Rectangle_128" data-name="Rectangle 128" transform="translate(1045 236)" fill="none" stroke="#76bbe2" stroke-width="1">
        <rect width="324" height="433" rx="23" stroke="none"/>
        <rect x="0.5" y="0.5" width="323" height="432" rx="22.5" fill="none"/>
      </g>
      <g id="Rectangle_130" data-name="Rectangle 130" transform="translate(1431 236)" fill="none" stroke="#76bbe2" stroke-width="1">
        <rect width="270" height="697" rx="23" stroke="none"/>
        <rect x="0.5" y="0.5" width="269" height="696" rx="22.5" fill="none"/>
      </g>
      <path id="Path_695" data-name="Path 695" d="M4.85-14.65v4.275h6.875v2.85H4.85V0h-3V-17.5H12.225v2.85ZM15.15,0V-11.85h3V0Zm.1-14.275a1.905,1.905,0,0,1-.575-1.4,1.905,1.905,0,0,1,.575-1.4,1.905,1.905,0,0,1,1.4-.575,1.905,1.905,0,0,1,1.4.575,1.905,1.905,0,0,1,.575,1.4,1.905,1.905,0,0,1-.575,1.4,1.905,1.905,0,0,1-1.4.575A1.905,1.905,0,0,1,15.25-14.275ZM27.975-12.15a4.3,4.3,0,0,1,3.075,1.212,4.29,4.29,0,0,1,1.275,3.263V0h-3V-6.925a2.367,2.367,0,0,0-.65-1.825,2.407,2.407,0,0,0-1.7-.6,2.173,2.173,0,0,0-.825.163,2.86,2.86,0,0,0-.675.375A3.478,3.478,0,0,0,25-8.375,1.883,1.883,0,0,0,24.725-8l-.1.175V0h-3V-11.85h2.8v1.725q.05-.075.138-.212a4.783,4.783,0,0,1,.4-.488,3.978,3.978,0,0,1,.688-.612,4.3,4.3,0,0,1,1-.488A3.882,3.882,0,0,1,27.975-12.15Zm12,9.95a3.232,3.232,0,0,0,1.487-.35,2.893,2.893,0,0,0,.963-.7l.3-.325V-4.8a5.485,5.485,0,0,0-2.7-.6A2.934,2.934,0,0,0,38.5-5a1.372,1.372,0,0,0-.675,1.275Q37.825-2.2,39.975-2.2Zm.35-9.95a6.043,6.043,0,0,1,3.963,1.188,3.976,3.976,0,0,1,1.438,3.238V0H42.95V-1.5q-.15.2-.425.5a4.976,4.976,0,0,1-1.275.8,4.85,4.85,0,0,1-2.2.5A4.5,4.5,0,0,1,36.038-.775a3.613,3.613,0,0,1-1.263-2.9,3.491,3.491,0,0,1,1.35-2.813,5.019,5.019,0,0,1,3.3-1.112,7.2,7.2,0,0,1,1.8.213,3.879,3.879,0,0,1,1.15.437l.35.2v-.675a1.706,1.706,0,0,0-.788-1.55,3.219,3.219,0,0,0-1.762-.5,7.159,7.159,0,0,0-1.663.212,8.125,8.125,0,0,0-1.388.438l-.5.225-.975-2.475A10.511,10.511,0,0,1,40.325-12.15ZM49.075,0V-18.9h3V0Zm5.6-1.85L56.35-4.025a5.422,5.422,0,0,0,.487.475,6.761,6.761,0,0,0,1.25.75,4.048,4.048,0,0,0,1.838.475A4.091,4.091,0,0,0,61.538-2.6a.875.875,0,0,0,.638-.8.8.8,0,0,0-.45-.775,9.416,9.416,0,0,0-1.9-.525q-4.4-.925-4.4-3.75a3.257,3.257,0,0,1,1.388-2.587,5.764,5.764,0,0,1,3.712-1.113,7.417,7.417,0,0,1,2.313.363,6.277,6.277,0,0,1,1.638.737l.5.35-1.5,2.2a4.773,4.773,0,0,0-2.95-1.025,3.5,3.5,0,0,0-1.525.3.918.918,0,0,0-.625.825.78.78,0,0,0,.55.738,14.011,14.011,0,0,0,2.25.587A7.339,7.339,0,0,1,64.188-5.85,2.992,2.992,0,0,1,65.2-3.35a3.112,3.112,0,0,1-1.463,2.6A6.209,6.209,0,0,1,60.025.3,7.855,7.855,0,0,1,58.138.075a6.863,6.863,0,0,1-1.513-.538,10.881,10.881,0,0,1-1.062-.625,4.839,4.839,0,0,1-.687-.538Z" transform="translate(589 345)" fill="#222"/>
      <path id="Path_696" data-name="Path 696" d="M4.85-14.65v4.275h6.875v2.85H4.85V0h-3V-17.5H12.225v2.85ZM15.15,0V-11.85h3V0Zm.1-14.275a1.905,1.905,0,0,1-.575-1.4,1.905,1.905,0,0,1,.575-1.4,1.905,1.905,0,0,1,1.4-.575,1.905,1.905,0,0,1,1.4.575,1.905,1.905,0,0,1,.575,1.4,1.905,1.905,0,0,1-.575,1.4,1.905,1.905,0,0,1-1.4.575A1.905,1.905,0,0,1,15.25-14.275ZM27.975-12.15a4.3,4.3,0,0,1,3.075,1.212,4.29,4.29,0,0,1,1.275,3.263V0h-3V-6.925a2.367,2.367,0,0,0-.65-1.825,2.407,2.407,0,0,0-1.7-.6,2.173,2.173,0,0,0-.825.163,2.86,2.86,0,0,0-.675.375A3.478,3.478,0,0,0,25-8.375,1.883,1.883,0,0,0,24.725-8l-.1.175V0h-3V-11.85h2.8v1.725q.05-.075.138-.212a4.783,4.783,0,0,1,.4-.488,3.978,3.978,0,0,1,.688-.612,4.3,4.3,0,0,1,1-.488A3.882,3.882,0,0,1,27.975-12.15Zm12,9.95a3.232,3.232,0,0,0,1.487-.35,2.893,2.893,0,0,0,.963-.7l.3-.325V-4.8a5.485,5.485,0,0,0-2.7-.6A2.934,2.934,0,0,0,38.5-5a1.372,1.372,0,0,0-.675,1.275Q37.825-2.2,39.975-2.2Zm.35-9.95a6.043,6.043,0,0,1,3.963,1.188,3.976,3.976,0,0,1,1.438,3.238V0H42.95V-1.5q-.15.2-.425.5a4.976,4.976,0,0,1-1.275.8,4.85,4.85,0,0,1-2.2.5A4.5,4.5,0,0,1,36.038-.775a3.613,3.613,0,0,1-1.263-2.9,3.491,3.491,0,0,1,1.35-2.813,5.019,5.019,0,0,1,3.3-1.112,7.2,7.2,0,0,1,1.8.213,3.879,3.879,0,0,1,1.15.437l.35.2v-.675a1.706,1.706,0,0,0-.788-1.55,3.219,3.219,0,0,0-1.762-.5,7.159,7.159,0,0,0-1.663.212,8.125,8.125,0,0,0-1.388.438l-.5.225-.975-2.475A10.511,10.511,0,0,1,40.325-12.15ZM49.075,0V-18.9h3V0Zm5.6-1.85L56.35-4.025a5.422,5.422,0,0,0,.487.475,6.761,6.761,0,0,0,1.25.75,4.048,4.048,0,0,0,1.838.475A4.091,4.091,0,0,0,61.538-2.6a.875.875,0,0,0,.638-.8.8.8,0,0,0-.45-.775,9.416,9.416,0,0,0-1.9-.525q-4.4-.925-4.4-3.75a3.257,3.257,0,0,1,1.388-2.587,5.764,5.764,0,0,1,3.712-1.113,7.417,7.417,0,0,1,2.313.363,6.277,6.277,0,0,1,1.638.737l.5.35-1.5,2.2a4.773,4.773,0,0,0-2.95-1.025,3.5,3.5,0,0,0-1.525.3.918.918,0,0,0-.625.825.78.78,0,0,0,.55.738,14.011,14.011,0,0,0,2.25.587A7.339,7.339,0,0,1,64.188-5.85,2.992,2.992,0,0,1,65.2-3.35a3.112,3.112,0,0,1-1.463,2.6A6.209,6.209,0,0,1,60.025.3,7.855,7.855,0,0,1,58.138.075a6.863,6.863,0,0,1-1.513-.538,10.881,10.881,0,0,1-1.062-.625,4.839,4.839,0,0,1-.687-.538Z" transform="translate(381 561)" fill="#222"/>
      <path id="Path_687" data-name="Path 687" d="M-26.137-2.5a6.2,6.2,0,0,0,1.663-.225,5.5,5.5,0,0,0,1.337-.537,10.162,10.162,0,0,0,.938-.625,3.252,3.252,0,0,0,.587-.537l.2-.225,2,1.975q-.1.125-.275.325a7.806,7.806,0,0,1-.812.712,8.76,8.76,0,0,1-1.363.9,9.55,9.55,0,0,1-1.875.713,8.783,8.783,0,0,1-2.4.325,8.513,8.513,0,0,1-6.337-2.588A8.86,8.86,0,0,1-35.013-8.75a8.86,8.86,0,0,1,2.538-6.462A8.513,8.513,0,0,1-26.137-17.8a8.96,8.96,0,0,1,2.275.288,7.987,7.987,0,0,1,1.825.688,13.38,13.38,0,0,1,1.288.8,6.836,6.836,0,0,1,.837.675l.25.3-2.025,1.975q-.075-.075-.187-.213a3.682,3.682,0,0,0-.55-.462,6.98,6.98,0,0,0-.912-.575,6.384,6.384,0,0,0-1.238-.463A5.793,5.793,0,0,0-26.137-15a5.385,5.385,0,0,0-4.175,1.825,6.364,6.364,0,0,0-1.65,4.425,6.364,6.364,0,0,0,1.65,4.425A5.385,5.385,0,0,0-26.137-2.5Zm14.75-9.65a5.156,5.156,0,0,1,.988.1,5.541,5.541,0,0,1,.787.2l.275.075-1.05,2.7a3.191,3.191,0,0,0-1.425-.275,2.776,2.776,0,0,0-1.463.4,3.008,3.008,0,0,0-.937.8l-.25.4V0h-3V-11.85h2.85v1.725q.05-.075.125-.212a3.645,3.645,0,0,1,.375-.488,4.4,4.4,0,0,1,.637-.612,3.727,3.727,0,0,1,.9-.488A3.168,3.168,0,0,1-11.387-12.15Zm4.237,1.8a6.17,6.17,0,0,1,4.488-1.8,6.17,6.17,0,0,1,4.488,1.8A5.953,5.953,0,0,1,3.663-5.925,5.964,5.964,0,0,1,1.825-1.513,6.148,6.148,0,0,1-2.662.3,6.148,6.148,0,0,1-7.15-1.513,5.964,5.964,0,0,1-8.988-5.925,5.953,5.953,0,0,1-7.15-10.35ZM-5.037-3.5a3.042,3.042,0,0,0,2.375,1,3.042,3.042,0,0,0,2.375-1,3.5,3.5,0,0,0,.9-2.425,3.5,3.5,0,0,0-.9-2.425,3.042,3.042,0,0,0-2.375-1,3.042,3.042,0,0,0-2.375,1,3.5,3.5,0,0,0-.9,2.425A3.5,3.5,0,0,0-5.037-3.5ZM5.112-1.85,6.787-4.025a5.422,5.422,0,0,0,.488.475,6.761,6.761,0,0,0,1.25.75,4.048,4.048,0,0,0,1.837.475A4.091,4.091,0,0,0,11.975-2.6a.875.875,0,0,0,.637-.8.8.8,0,0,0-.45-.775,9.416,9.416,0,0,0-1.9-.525q-4.4-.925-4.4-3.75A3.257,3.257,0,0,1,7.25-11.038a5.764,5.764,0,0,1,3.713-1.113,7.417,7.417,0,0,1,2.313.363,6.277,6.277,0,0,1,1.637.737l.5.35-1.5,2.2a4.773,4.773,0,0,0-2.95-1.025,3.5,3.5,0,0,0-1.525.3.918.918,0,0,0-.625.825.78.78,0,0,0,.55.738,14.011,14.011,0,0,0,2.25.587A7.339,7.339,0,0,1,14.625-5.85a2.992,2.992,0,0,1,1.012,2.5,3.112,3.112,0,0,1-1.463,2.6A6.209,6.209,0,0,1,10.462.3,7.855,7.855,0,0,1,8.575.075,6.863,6.863,0,0,1,7.062-.463,10.882,10.882,0,0,1,6-1.088a4.839,4.839,0,0,1-.688-.538Zm12.075,0,1.675-2.175a5.422,5.422,0,0,0,.488.475,6.761,6.761,0,0,0,1.25.75,4.048,4.048,0,0,0,1.837.475A4.091,4.091,0,0,0,24.05-2.6a.875.875,0,0,0,.638-.8.8.8,0,0,0-.45-.775,9.416,9.416,0,0,0-1.9-.525q-4.4-.925-4.4-3.75a3.257,3.257,0,0,1,1.388-2.587,5.764,5.764,0,0,1,3.712-1.113,7.417,7.417,0,0,1,2.313.363,6.277,6.277,0,0,1,1.637.737l.5.35-1.5,2.2a4.773,4.773,0,0,0-2.95-1.025,3.5,3.5,0,0,0-1.525.3.918.918,0,0,0-.625.825.78.78,0,0,0,.55.738,14.011,14.011,0,0,0,2.25.587A7.339,7.339,0,0,1,26.7-5.85a2.992,2.992,0,0,1,1.013,2.5A3.112,3.112,0,0,1,26.25-.75,6.209,6.209,0,0,1,22.538.3,7.855,7.855,0,0,1,20.65.075a6.863,6.863,0,0,1-1.512-.538,10.882,10.882,0,0,1-1.062-.625,4.839,4.839,0,0,1-.687-.538ZM-28.15,18.35v4.275h6.875v2.85H-28.15V33h-3V15.5h10.375v2.85ZM-17.85,33V21.15h3V33Zm.1-14.275a1.905,1.905,0,0,1-.575-1.4,1.905,1.905,0,0,1,.575-1.4,1.905,1.905,0,0,1,1.4-.575,1.905,1.905,0,0,1,1.4.575,1.905,1.905,0,0,1,.575,1.4,1.905,1.905,0,0,1-.575,1.4,1.905,1.905,0,0,1-1.4.575A1.905,1.905,0,0,1-17.75,18.725ZM-5.025,20.85A4.3,4.3,0,0,1-1.95,22.063,4.29,4.29,0,0,1-.675,25.325V33h-3V26.075a2.367,2.367,0,0,0-.65-1.825,2.407,2.407,0,0,0-1.7-.6,2.173,2.173,0,0,0-.825.163,2.86,2.86,0,0,0-.675.375A3.478,3.478,0,0,0-8,24.625,1.883,1.883,0,0,0-8.275,25l-.1.175V33h-3V21.15h2.8v1.725q.05-.075.137-.213a4.784,4.784,0,0,1,.4-.487,3.978,3.978,0,0,1,.688-.612,4.3,4.3,0,0,1,1-.488A3.882,3.882,0,0,1-5.025,20.85Zm12,9.95a3.232,3.232,0,0,0,1.487-.35,2.893,2.893,0,0,0,.963-.7l.3-.325V28.2a5.485,5.485,0,0,0-2.7-.6A2.934,2.934,0,0,0,5.5,28a1.372,1.372,0,0,0-.675,1.275Q4.825,30.8,6.975,30.8Zm.35-9.95a6.043,6.043,0,0,1,3.963,1.188,3.976,3.976,0,0,1,1.438,3.238V33H9.95V31.5q-.15.2-.425.5a4.976,4.976,0,0,1-1.275.8,4.85,4.85,0,0,1-2.2.5,4.5,4.5,0,0,1-3.013-1.075,3.613,3.613,0,0,1-1.263-2.9,3.491,3.491,0,0,1,1.35-2.813,5.019,5.019,0,0,1,3.3-1.112,7.2,7.2,0,0,1,1.8.212,3.879,3.879,0,0,1,1.15.438l.35.2v-.675a1.706,1.706,0,0,0-.788-1.55,3.219,3.219,0,0,0-1.762-.5,7.159,7.159,0,0,0-1.662.212,8.125,8.125,0,0,0-1.388.438l-.5.225L2.65,21.925A10.511,10.511,0,0,1,7.325,20.85ZM16.075,33V14.1h3V33Zm5.6-1.85,1.675-2.175a5.422,5.422,0,0,0,.488.475,6.761,6.761,0,0,0,1.25.75,4.048,4.048,0,0,0,1.837.475,4.091,4.091,0,0,0,1.612-.275.875.875,0,0,0,.638-.8.8.8,0,0,0-.45-.775,9.416,9.416,0,0,0-1.9-.525q-4.4-.925-4.4-3.75a3.257,3.257,0,0,1,1.388-2.587,5.764,5.764,0,0,1,3.712-1.113,7.417,7.417,0,0,1,2.313.363,6.277,6.277,0,0,1,1.637.737l.5.35-1.5,2.2a4.773,4.773,0,0,0-2.95-1.025,3.5,3.5,0,0,0-1.525.3.918.918,0,0,0-.625.825.78.78,0,0,0,.55.738,14.011,14.011,0,0,0,2.25.587,7.339,7.339,0,0,1,3.013,1.225,2.992,2.992,0,0,1,1.013,2.5,3.112,3.112,0,0,1-1.463,2.6,6.209,6.209,0,0,1-3.712,1.05,7.855,7.855,0,0,1-1.888-.225,6.863,6.863,0,0,1-1.512-.538,10.881,10.881,0,0,1-1.062-.625,4.839,4.839,0,0,1-.687-.538Z" transform="translate(864 479)" fill="#222"/>
      <path id="Path_686" data-name="Path 686" d="M3.363-15.225A8.483,8.483,0,0,1,9.7-17.8a8.483,8.483,0,0,1,6.338,2.575A8.9,8.9,0,0,1,18.55-8.75,9.37,9.37,0,0,1,17-3.475L19.475-1.35,17.55.85,14.975-1.375A8.59,8.59,0,0,1,9.7.3,8.483,8.483,0,0,1,3.363-2.275,8.9,8.9,0,0,1,.85-8.75,8.9,8.9,0,0,1,3.363-15.225ZM9.675-6,11.6-8.175l3.1,2.7a6.665,6.665,0,0,0,.8-3.275,6.358,6.358,0,0,0-1.612-4.4A5.36,5.36,0,0,0,9.7-14.95a5.36,5.36,0,0,0-4.188,1.8A6.358,6.358,0,0,0,3.9-8.75a6.358,6.358,0,0,0,1.613,4.4A5.36,5.36,0,0,0,9.7-2.55a5.774,5.774,0,0,0,3-.8ZM25.625.3A4.3,4.3,0,0,1,22.55-.913a4.29,4.29,0,0,1-1.275-3.263V-11.85h3V-5q0,2.5,2.35,2.5a2.4,2.4,0,0,0,1.288-.363,2.38,2.38,0,0,0,.812-.737l.25-.35v-7.9h3V0h-2.8V-1.725q-.05.075-.137.213a4.353,4.353,0,0,1-.413.488,4.391,4.391,0,0,1-.7.612,4.3,4.3,0,0,1-1,.487A3.809,3.809,0,0,1,25.625.3ZM35.45,0V-11.85h3V0Zm.1-14.275a1.905,1.905,0,0,1-.575-1.4,1.905,1.905,0,0,1,.575-1.4,1.905,1.905,0,0,1,1.4-.575,1.905,1.905,0,0,1,1.4.575,1.905,1.905,0,0,1,.575,1.4,1.905,1.905,0,0,1-.575,1.4,1.905,1.905,0,0,1-1.4.575A1.905,1.905,0,0,1,35.55-14.275ZM41.6-11.85H52.15L46.275-2.8h5.6V0h-10.7L47.05-9.05H41.6ZM65-14.65v4.275h6.875v2.85H65V0H62V-17.5H72.375v2.85ZM75.3,0V-11.85h3V0Zm.1-14.275a1.905,1.905,0,0,1-.575-1.4,1.905,1.905,0,0,1,.575-1.4,1.905,1.905,0,0,1,1.4-.575,1.905,1.905,0,0,1,1.4.575,1.905,1.905,0,0,1,.575,1.4,1.905,1.905,0,0,1-.575,1.4,1.905,1.905,0,0,1-1.4.575A1.905,1.905,0,0,1,75.4-14.275ZM88.125-12.15A4.3,4.3,0,0,1,91.2-10.938a4.29,4.29,0,0,1,1.275,3.263V0h-3V-6.925a2.367,2.367,0,0,0-.65-1.825,2.407,2.407,0,0,0-1.7-.6,2.173,2.173,0,0,0-.825.163,2.86,2.86,0,0,0-.675.375,3.478,3.478,0,0,0-.475.438A1.883,1.883,0,0,0,84.875-8l-.1.175V0h-3V-11.85h2.8v1.725q.05-.075.137-.212a4.783,4.783,0,0,1,.4-.488,3.978,3.978,0,0,1,.688-.612,4.3,4.3,0,0,1,1-.488A3.882,3.882,0,0,1,88.125-12.15Zm12,9.95a3.232,3.232,0,0,0,1.487-.35,2.893,2.893,0,0,0,.963-.7l.3-.325V-4.8a5.485,5.485,0,0,0-2.7-.6A2.934,2.934,0,0,0,98.65-5a1.372,1.372,0,0,0-.675,1.275Q97.975-2.2,100.125-2.2Zm.35-9.95a6.043,6.043,0,0,1,3.963,1.188,3.976,3.976,0,0,1,1.438,3.238V0H103.1V-1.5q-.15.2-.425.5a4.976,4.976,0,0,1-1.275.8,4.85,4.85,0,0,1-2.2.5A4.5,4.5,0,0,1,96.187-.775a3.613,3.613,0,0,1-1.263-2.9,3.491,3.491,0,0,1,1.35-2.813,5.019,5.019,0,0,1,3.3-1.112,7.2,7.2,0,0,1,1.8.213,3.879,3.879,0,0,1,1.15.437l.35.2v-.675a1.706,1.706,0,0,0-.787-1.55,3.219,3.219,0,0,0-1.763-.5,7.159,7.159,0,0,0-1.662.212,8.125,8.125,0,0,0-1.387.438l-.5.225L95.8-11.075A10.511,10.511,0,0,1,100.475-12.15ZM109.225,0V-18.9h3V0Zm5.6-1.85L116.5-4.025a5.421,5.421,0,0,0,.487.475,6.761,6.761,0,0,0,1.25.75,4.048,4.048,0,0,0,1.838.475,4.091,4.091,0,0,0,1.613-.275.875.875,0,0,0,.637-.8.8.8,0,0,0-.45-.775,9.416,9.416,0,0,0-1.9-.525q-4.4-.925-4.4-3.75a3.257,3.257,0,0,1,1.387-2.587,5.764,5.764,0,0,1,3.713-1.113,7.417,7.417,0,0,1,2.313.363,6.277,6.277,0,0,1,1.638.737l.5.35-1.5,2.2a4.773,4.773,0,0,0-2.95-1.025,3.5,3.5,0,0,0-1.525.3.918.918,0,0,0-.625.825.78.78,0,0,0,.55.738,14.012,14.012,0,0,0,2.25.587,7.339,7.339,0,0,1,3.013,1.225,2.992,2.992,0,0,1,1.012,2.5,3.112,3.112,0,0,1-1.463,2.6A6.209,6.209,0,0,1,120.175.3a7.855,7.855,0,0,1-1.887-.225,6.863,6.863,0,0,1-1.513-.538,10.882,10.882,0,0,1-1.062-.625,4.84,4.84,0,0,1-.687-.538Z" transform="translate(801 756)" fill="#222"/>
      <path id="Path_688" data-name="Path 688" d="M-28.15-14.65v4.275h6.875v2.85H-28.15V0h-3V-17.5h10.375v2.85ZM-17.85,0V-11.85h3V0Zm.1-14.275a1.905,1.905,0,0,1-.575-1.4,1.905,1.905,0,0,1,.575-1.4,1.905,1.905,0,0,1,1.4-.575,1.905,1.905,0,0,1,1.4.575,1.905,1.905,0,0,1,.575,1.4,1.905,1.905,0,0,1-.575,1.4,1.905,1.905,0,0,1-1.4.575A1.905,1.905,0,0,1-17.75-14.275ZM-5.025-12.15A4.3,4.3,0,0,1-1.95-10.938,4.29,4.29,0,0,1-.675-7.675V0h-3V-6.925a2.367,2.367,0,0,0-.65-1.825,2.407,2.407,0,0,0-1.7-.6,2.173,2.173,0,0,0-.825.163,2.86,2.86,0,0,0-.675.375A3.478,3.478,0,0,0-8-8.375,1.883,1.883,0,0,0-8.275-8l-.1.175V0h-3V-11.85h2.8v1.725q.05-.075.137-.212a4.784,4.784,0,0,1,.4-.488,3.978,3.978,0,0,1,.688-.612,4.3,4.3,0,0,1,1-.488A3.882,3.882,0,0,1-5.025-12.15Zm12,9.95a3.232,3.232,0,0,0,1.487-.35,2.893,2.893,0,0,0,.963-.7l.3-.325V-4.8a5.485,5.485,0,0,0-2.7-.6A2.934,2.934,0,0,0,5.5-5a1.372,1.372,0,0,0-.675,1.275Q4.825-2.2,6.975-2.2Zm.35-9.95a6.043,6.043,0,0,1,3.963,1.188,3.976,3.976,0,0,1,1.438,3.238V0H9.95V-1.5q-.15.2-.425.5A4.976,4.976,0,0,1,8.25-.2a4.85,4.85,0,0,1-2.2.5A4.5,4.5,0,0,1,3.038-.775a3.613,3.613,0,0,1-1.263-2.9,3.491,3.491,0,0,1,1.35-2.813A5.019,5.019,0,0,1,6.425-7.6a7.2,7.2,0,0,1,1.8.213,3.879,3.879,0,0,1,1.15.437l.35.2v-.675a1.706,1.706,0,0,0-.788-1.55,3.219,3.219,0,0,0-1.762-.5,7.159,7.159,0,0,0-1.662.212,8.125,8.125,0,0,0-1.388.438l-.5.225L2.65-11.075A10.511,10.511,0,0,1,7.325-12.15ZM16.075,0V-18.9h3V0Zm5.6-1.85L23.35-4.025a5.422,5.422,0,0,0,.488.475,6.761,6.761,0,0,0,1.25.75,4.048,4.048,0,0,0,1.837.475A4.091,4.091,0,0,0,28.538-2.6a.875.875,0,0,0,.638-.8.8.8,0,0,0-.45-.775,9.416,9.416,0,0,0-1.9-.525q-4.4-.925-4.4-3.75a3.257,3.257,0,0,1,1.388-2.587,5.764,5.764,0,0,1,3.712-1.113,7.417,7.417,0,0,1,2.313.363,6.277,6.277,0,0,1,1.637.737l.5.35-1.5,2.2a4.773,4.773,0,0,0-2.95-1.025,3.5,3.5,0,0,0-1.525.3.918.918,0,0,0-.625.825.78.78,0,0,0,.55.738,14.011,14.011,0,0,0,2.25.587A7.339,7.339,0,0,1,31.188-5.85,2.992,2.992,0,0,1,32.2-3.35a3.112,3.112,0,0,1-1.463,2.6A6.209,6.209,0,0,1,27.025.3,7.855,7.855,0,0,1,25.138.075a6.863,6.863,0,0,1-1.512-.538,10.882,10.882,0,0,1-1.062-.625,4.839,4.839,0,0,1-.687-.538Z" transform="translate(1207 462)" fill="#222"/>
      <path id="Path_689" data-name="Path 689" d="M-28.275-17.5H-25.5l5.7,8.8,5.7-8.8h2.775V0h-3V-11.75L-19.8-3.425l-5.475-8.325V0h-3ZM-3.325-2.2a3.232,3.232,0,0,0,1.487-.35,2.893,2.893,0,0,0,.963-.7l.3-.325V-4.8a5.485,5.485,0,0,0-2.7-.6A2.934,2.934,0,0,0-4.8-5a1.372,1.372,0,0,0-.675,1.275Q-5.475-2.2-3.325-2.2Zm.35-9.95A6.043,6.043,0,0,1,.988-10.963,3.976,3.976,0,0,1,2.425-7.725V0H-.35V-1.5q-.15.2-.425.5A4.976,4.976,0,0,1-2.05-.2a4.85,4.85,0,0,1-2.2.5A4.5,4.5,0,0,1-7.263-.775a3.613,3.613,0,0,1-1.263-2.9,3.491,3.491,0,0,1,1.35-2.813A5.019,5.019,0,0,1-3.875-7.6a7.2,7.2,0,0,1,1.8.213,3.879,3.879,0,0,1,1.15.437l.35.2v-.675a1.706,1.706,0,0,0-.788-1.55,3.219,3.219,0,0,0-1.762-.5,7.159,7.159,0,0,0-1.662.212,8.125,8.125,0,0,0-1.388.438l-.5.225-.975-2.475A10.511,10.511,0,0,1-2.975-12.15ZM8.775-18.9V-7.175l4.25-4.675H16.9l-5.2,5.6L17.25,0H13.3L8.775-5.175V0h-3V-18.9ZM23.45-12.15a5.745,5.745,0,0,1,4.238,1.75,6.02,6.02,0,0,1,1.737,4.425q0,.675-.025,1.125H20.55A3.006,3.006,0,0,0,21.662-3.2a3.371,3.371,0,0,0,2.213.75,4.976,4.976,0,0,0,1.737-.3,3.962,3.962,0,0,0,1.163-.6l.35-.3,1.5,2.25a4.411,4.411,0,0,1-.6.475,9.206,9.206,0,0,1-1.637.75A6.96,6.96,0,0,1,23.875.3a6.231,6.231,0,0,1-4.538-1.8A5.953,5.953,0,0,1,17.5-5.925a6.2,6.2,0,0,1,1.7-4.425A5.6,5.6,0,0,1,23.45-12.15Zm-2.9,5.125h5.875a2.444,2.444,0,0,0-.837-1.65,2.972,2.972,0,0,0-2.138-.75,2.788,2.788,0,0,0-2.062.737A2.73,2.73,0,0,0,20.55-7.025Z" transform="translate(1566 594)" fill="#222"/>
      <g id="Rectangle_132" data-name="Rectangle 132" transform="translate(336 962)" fill="none" stroke="#76bbe2" stroke-width="1">
        <rect width="1365" height="169" rx="41" stroke="none"/>
        <rect x="0.5" y="0.5" width="1364" height="168" rx="40.5" fill="none"/>
      </g>
      <path id="Path_685" data-name="Path 685" d="M9.725-2.5a6.2,6.2,0,0,0,1.663-.225,5.5,5.5,0,0,0,1.337-.537,10.162,10.162,0,0,0,.938-.625,3.252,3.252,0,0,0,.588-.537l.2-.225,2,1.975q-.1.125-.275.325a7.806,7.806,0,0,1-.812.712A8.76,8.76,0,0,1,14-.738a9.55,9.55,0,0,1-1.875.713A8.783,8.783,0,0,1,9.725.3,8.513,8.513,0,0,1,3.388-2.288,8.86,8.86,0,0,1,.85-8.75a8.86,8.86,0,0,1,2.538-6.462A8.513,8.513,0,0,1,9.725-17.8,8.96,8.96,0,0,1,12-17.513a7.987,7.987,0,0,1,1.825.688,13.379,13.379,0,0,1,1.288.8,6.836,6.836,0,0,1,.837.675l.25.3-2.025,1.975q-.075-.075-.187-.213a3.682,3.682,0,0,0-.55-.462,6.98,6.98,0,0,0-.912-.575,6.384,6.384,0,0,0-1.238-.463A5.793,5.793,0,0,0,9.725-15,5.385,5.385,0,0,0,5.55-13.175,6.364,6.364,0,0,0,3.9-8.75,6.364,6.364,0,0,0,5.55-4.325,5.385,5.385,0,0,0,9.725-2.5ZM18.75,0V-18.9h3V0Zm7.388-10.35a6.17,6.17,0,0,1,4.487-1.8,6.17,6.17,0,0,1,4.488,1.8A5.953,5.953,0,0,1,36.95-5.925a5.964,5.964,0,0,1-1.837,4.413A6.148,6.148,0,0,1,30.625.3a6.148,6.148,0,0,1-4.487-1.813A5.964,5.964,0,0,1,24.3-5.925,5.953,5.953,0,0,1,26.138-10.35ZM28.25-3.5a3.042,3.042,0,0,0,2.375,1A3.042,3.042,0,0,0,33-3.5a3.5,3.5,0,0,0,.9-2.425A3.5,3.5,0,0,0,33-8.35a3.042,3.042,0,0,0-2.375-1,3.042,3.042,0,0,0-2.375,1,3.5,3.5,0,0,0-.9,2.425A3.5,3.5,0,0,0,28.25-3.5ZM38.4-1.85l1.675-2.175a5.422,5.422,0,0,0,.487.475,6.761,6.761,0,0,0,1.25.75,4.048,4.048,0,0,0,1.838.475A4.091,4.091,0,0,0,45.263-2.6a.875.875,0,0,0,.638-.8.8.8,0,0,0-.45-.775,9.416,9.416,0,0,0-1.9-.525q-4.4-.925-4.4-3.75a3.257,3.257,0,0,1,1.388-2.587A5.764,5.764,0,0,1,44.25-12.15a7.417,7.417,0,0,1,2.313.363,6.277,6.277,0,0,1,1.638.737l.5.35L47.2-8.5a4.773,4.773,0,0,0-2.95-1.025,3.5,3.5,0,0,0-1.525.3A.918.918,0,0,0,42.1-8.4a.78.78,0,0,0,.55.738,14.011,14.011,0,0,0,2.25.587A7.339,7.339,0,0,1,47.913-5.85a2.992,2.992,0,0,1,1.013,2.5,3.112,3.112,0,0,1-1.463,2.6A6.209,6.209,0,0,1,43.75.3,7.855,7.855,0,0,1,41.863.075,6.863,6.863,0,0,1,40.35-.463a10.881,10.881,0,0,1-1.062-.625,4.839,4.839,0,0,1-.687-.538ZM51.7,0V-11.85h3V0Zm.1-14.275a1.905,1.905,0,0,1-.575-1.4,1.905,1.905,0,0,1,.575-1.4,1.905,1.905,0,0,1,1.4-.575,1.905,1.905,0,0,1,1.4.575,1.905,1.905,0,0,1,.575,1.4,1.905,1.905,0,0,1-.575,1.4,1.905,1.905,0,0,1-1.4.575A1.905,1.905,0,0,1,51.8-14.275ZM64.525-12.15A4.3,4.3,0,0,1,67.6-10.938a4.29,4.29,0,0,1,1.275,3.263V0h-3V-6.925a2.367,2.367,0,0,0-.65-1.825,2.407,2.407,0,0,0-1.7-.6,2.173,2.173,0,0,0-.825.163,2.86,2.86,0,0,0-.675.375,3.478,3.478,0,0,0-.475.438A1.883,1.883,0,0,0,61.275-8l-.1.175V0h-3V-11.85h2.8v1.725q.05-.075.138-.212a4.784,4.784,0,0,1,.4-.488,3.978,3.978,0,0,1,.688-.612,4.3,4.3,0,0,1,1-.488A3.882,3.882,0,0,1,64.525-12.15ZM80.2-1.225A4.065,4.065,0,0,1,76.85.3a5.457,5.457,0,0,1-4.062-1.775,6.153,6.153,0,0,1-1.713-4.45,6.153,6.153,0,0,1,1.713-4.45A5.457,5.457,0,0,1,76.85-12.15a4.235,4.235,0,0,1,1.988.462,3.58,3.58,0,0,1,1.237.938l.35.45v-1.55H83.2V.1a5.415,5.415,0,0,1-1.837,4.437A6.9,6.9,0,0,1,76.825,6.05a7.8,7.8,0,0,1-2.912-.562A7.22,7.22,0,0,1,71.85,4.35L71.2,3.8l1.7-2.3a5.072,5.072,0,0,0,.512.488,7,7,0,0,0,1.375.775,4.768,4.768,0,0,0,2.037.487,3.49,3.49,0,0,0,2.525-.825A2.957,2.957,0,0,0,80.2.2Zm0-2.925V-7.7q-.1-.175-.287-.45a3.4,3.4,0,0,0-.925-.738,2.977,2.977,0,0,0-1.613-.462A3.05,3.05,0,0,0,75-8.387a3.52,3.52,0,0,0-.875,2.462A3.52,3.52,0,0,0,75-3.463a3.05,3.05,0,0,0,2.375.963,3.044,3.044,0,0,0,1.575-.413,2.878,2.878,0,0,0,.975-.838ZM101.775-2.5a6.2,6.2,0,0,0,1.663-.225,5.5,5.5,0,0,0,1.337-.537,10.163,10.163,0,0,0,.938-.625,3.252,3.252,0,0,0,.588-.537l.2-.225,2,1.975q-.1.125-.275.325a7.807,7.807,0,0,1-.812.712,8.76,8.76,0,0,1-1.363.9,9.55,9.55,0,0,1-1.875.713,8.783,8.783,0,0,1-2.4.325,8.513,8.513,0,0,1-6.338-2.588A8.86,8.86,0,0,1,92.9-8.75a8.86,8.86,0,0,1,2.537-6.462,8.513,8.513,0,0,1,6.338-2.588,8.96,8.96,0,0,1,2.275.288,7.987,7.987,0,0,1,1.825.688,13.38,13.38,0,0,1,1.287.8,6.836,6.836,0,0,1,.838.675l.25.3-2.025,1.975q-.075-.075-.187-.213a3.682,3.682,0,0,0-.55-.462,6.98,6.98,0,0,0-.912-.575,6.384,6.384,0,0,0-1.238-.463A5.793,5.793,0,0,0,101.775-15,5.385,5.385,0,0,0,97.6-13.175,6.364,6.364,0,0,0,95.95-8.75,6.364,6.364,0,0,0,97.6-4.325,5.385,5.385,0,0,0,101.775-2.5ZM115.6-12.15a5.745,5.745,0,0,1,4.237,1.75,6.02,6.02,0,0,1,1.738,4.425q0,.675-.025,1.125H112.7a3.006,3.006,0,0,0,1.113,1.65,3.371,3.371,0,0,0,2.212.75,4.976,4.976,0,0,0,1.738-.3,3.962,3.962,0,0,0,1.162-.6l.35-.3,1.5,2.25a4.411,4.411,0,0,1-.6.475,9.206,9.206,0,0,1-1.637.75A6.96,6.96,0,0,1,116.025.3a6.231,6.231,0,0,1-4.537-1.8,5.953,5.953,0,0,1-1.838-4.425,6.2,6.2,0,0,1,1.7-4.425A5.6,5.6,0,0,1,115.6-12.15Zm-2.9,5.125h5.875a2.444,2.444,0,0,0-.838-1.65,2.972,2.972,0,0,0-2.137-.75,2.788,2.788,0,0,0-2.062.737A2.73,2.73,0,0,0,112.7-7.025Zm17.15-5.125a5.156,5.156,0,0,1,.988.1,5.541,5.541,0,0,1,.788.2l.275.075-1.05,2.7a3.191,3.191,0,0,0-1.425-.275,2.776,2.776,0,0,0-1.462.4,3.009,3.009,0,0,0-.937.8l-.25.4V0h-3V-11.85h2.85v1.725q.05-.075.125-.212a3.646,3.646,0,0,1,.375-.488,4.4,4.4,0,0,1,.638-.612,3.727,3.727,0,0,1,.9-.488A3.168,3.168,0,0,1,129.85-12.15Zm8.35,0a5.745,5.745,0,0,1,4.238,1.75,6.02,6.02,0,0,1,1.738,4.425q0,.675-.025,1.125H135.3a3.006,3.006,0,0,0,1.113,1.65,3.371,3.371,0,0,0,2.212.75,4.976,4.976,0,0,0,1.738-.3,3.962,3.962,0,0,0,1.163-.6l.35-.3,1.5,2.25a4.411,4.411,0,0,1-.6.475,9.207,9.207,0,0,1-1.638.75A6.96,6.96,0,0,1,138.625.3a6.231,6.231,0,0,1-4.537-1.8,5.953,5.953,0,0,1-1.838-4.425,6.2,6.2,0,0,1,1.7-4.425A5.6,5.6,0,0,1,138.2-12.15Zm-2.9,5.125h5.875a2.444,2.444,0,0,0-.837-1.65,2.972,2.972,0,0,0-2.138-.75,2.788,2.788,0,0,0-2.062.737A2.73,2.73,0,0,0,135.3-7.025Zm24.825-5.125a3.946,3.946,0,0,1,3,1.212,4.617,4.617,0,0,1,1.15,3.313V0h-3V-6.85q0-2.5-2.125-2.5a2.237,2.237,0,0,0-.85.163,2.384,2.384,0,0,0-.65.375,4.5,4.5,0,0,0-.45.438,1.883,1.883,0,0,0-.275.375l-.1.175V0h-3V-6.85q0-2.5-2.125-2.5a2.237,2.237,0,0,0-.85.163,2.384,2.384,0,0,0-.65.375,4.5,4.5,0,0,0-.45.438,1.883,1.883,0,0,0-.275.375l-.1.175V0h-3V-11.85h2.8v1.725q.05-.075.137-.212a4.784,4.784,0,0,1,.4-.488,3.978,3.978,0,0,1,.688-.612,4.353,4.353,0,0,1,.988-.488,3.7,3.7,0,0,1,1.288-.225,4.891,4.891,0,0,1,1.475.212,3.237,3.237,0,0,1,1.063.525,6.05,6.05,0,0,1,.663.613,2.4,2.4,0,0,1,.375.5l.1.225a2.226,2.226,0,0,0,.125-.225,2.754,2.754,0,0,1,.4-.5,4.344,4.344,0,0,1,.725-.625,4.337,4.337,0,0,1,1.075-.5A4.557,4.557,0,0,1,160.125-12.15Zm8.188,1.8a6.17,6.17,0,0,1,4.487-1.8,6.17,6.17,0,0,1,4.488,1.8,5.953,5.953,0,0,1,1.838,4.425,5.964,5.964,0,0,1-1.838,4.413A6.148,6.148,0,0,1,172.8.3a6.148,6.148,0,0,1-4.487-1.813,5.964,5.964,0,0,1-1.838-4.413A5.953,5.953,0,0,1,168.312-10.35Zm2.112,6.85a3.042,3.042,0,0,0,2.375,1,3.042,3.042,0,0,0,2.375-1,3.5,3.5,0,0,0,.9-2.425,3.5,3.5,0,0,0-.9-2.425,3.042,3.042,0,0,0-2.375-1,3.042,3.042,0,0,0-2.375,1,3.5,3.5,0,0,0-.9,2.425A3.5,3.5,0,0,0,170.425-3.5Zm17.25-8.65a4.3,4.3,0,0,1,3.075,1.212,4.29,4.29,0,0,1,1.275,3.263V0h-3V-6.925a2.367,2.367,0,0,0-.65-1.825,2.407,2.407,0,0,0-1.7-.6,2.173,2.173,0,0,0-.825.163,2.86,2.86,0,0,0-.675.375,3.478,3.478,0,0,0-.475.438,1.883,1.883,0,0,0-.275.375l-.1.175V0h-3V-11.85h2.8v1.725q.05-.075.137-.212a4.784,4.784,0,0,1,.4-.488,3.978,3.978,0,0,1,.688-.612,4.3,4.3,0,0,1,1-.488A3.882,3.882,0,0,1,187.675-12.15Zm6.35,16.95,1.4-2.325A2.314,2.314,0,0,0,197,3.25a1.833,1.833,0,0,0,1.188-.338,3.6,3.6,0,0,0,.837-1.413L199.5.275,193.725-11.85h3.325l4,8.675,3.125-8.675H207.4l-5.75,14.5q-1.35,3.4-4.45,3.4a4.37,4.37,0,0,1-1.6-.312,4.13,4.13,0,0,1-1.175-.637Z" transform="translate(915 1056)" fill="#222"/>
    </g>
  </g>
</svg>
