<svg width="1160" height="880" viewBox="0 0 1160 880" fill="none" xmlns="http://www.w3.org/2000/svg">
<mask id="mask0_643_44" style="mask-type:alpha" maskUnits="userSpaceOnUse" x="0" y="0" width="1161" height="880">
<path fill-rule="evenodd" clip-rule="evenodd" d="M531.993 36.8117C676.632 58.0815 918.481 -55.7725 1010.18 36.8117C1143.03 170.946 1018.72 238.635 1087.25 384.963C1168.19 557.806 1217.23 673.036 1036.49 774.701C851.657 878.671 750.944 904.473 564.725 854.453C513.243 840.625 428.106 832.704 350.417 828.177C233.974 821.392 104.162 808.727 37.8916 712.742C8.34874 669.953 -9.96192 614.239 5.77722 544.94C48.7772 355.612 75.7327 423 114.882 195.164C143.9 26.2892 357.292 11.121 531.993 36.8117Z" fill="#E49F36"/>
</mask>
<g mask="url(#mask0_643_44)">
<path d="M-218.208 261.85C-203.832 46.2084 -7.05946 -37.4383 56.4778 -48.1348L91.1344 -37.8661H305.492L564.134 -10.2691L887.596 -46.2094L1191.81 286.88C1201 295.651 1281.66 318.456 1343.27 380.581C1404.88 442.707 1322.09 560.497 1296.42 606.492C1281.66 635.8 1225.05 713.414 1116.72 789.402C1008.38 865.39 976.591 1009.96 948.566 1015.31C866.845 1010.39 646.797 1024.55 548.731 1015.31C450.665 1006.07 394.701 1023.01 361.328 1028.15C368.388 1159.71 251.454 967.563 186.761 971.67C122.069 975.778 -237.463 978.516 -258.642 971.67L-176.492 773.999C-193.179 723.939 -232.584 477.492 -218.208 261.85Z" fill="#2C042D"/>
<path d="M1318.9 685.287C1378.78 695.148 1497.57 687.036 1549.49 681.748L1558.57 659.73C1433.28 683.467 1348.1 674.989 1321.17 667.783C1400.37 591.974 1404.16 522.865 1396.16 497.787C1380.41 447.644 1313.88 416.474 1282.59 407.157C1308 478.106 1276.02 560.014 1256.86 592.1C1236.07 615.67 1228.69 596.884 1230.61 586.425C1257.16 510.004 1260.87 449.781 1259.4 429.222C1248.47 353.155 1143.8 343.236 1092.83 347.785C1134.73 399.958 1124.03 483.082 1113.44 518.122C1100.04 547.146 1089.11 526.481 1090.47 514.031C1109.96 438.445 1067.27 377.971 1043.49 357.183C982.876 357.467 936.131 388.504 920.335 403.988L986.839 482.453C1004.7 510.325 973.759 514.881 965.862 503.242C939.275 448.013 911.04 434.81 897.73 441.337C823.102 497.729 755.449 495.135 729.556 484.63C764.422 500.137 803.878 560.317 821.031 592.067C826.219 604.113 832.204 634.675 844.381 654.951C856.558 675.227 886.39 667.529 899.784 661.147C920.398 655.03 926.542 663.632 930.61 671.697C936.841 684.053 889.831 693.89 865.087 697.956C850.564 700.342 871.527 750.933 888.733 766.454C934.392 786.374 996.243 746.615 1023.52 724.501C1053.13 703.358 1049.94 729.113 1043.69 740.049C1017.02 776.274 963.065 800.675 939.422 808.347C1132.41 958.997 1179.68 772.608 1192.2 759.599C1202.21 749.191 1211.62 752.436 1212.99 756.851C1223.43 816.545 1150.06 875.331 1112.33 897.696C1374.09 938.171 1359.11 772.954 1318.9 685.287Z" fill="#962B43"/>
<path d="M1112.33 897.696C1374.09 938.171 1359.11 772.954 1318.9 685.287L729.556 484.63C764.422 500.137 803.878 560.317 821.031 592.067C826.219 604.113 832.203 634.675 844.381 654.951C856.558 675.227 886.39 667.53 899.783 661.147C920.398 655.03 926.542 663.632 930.609 671.697C936.841 684.053 859.172 707.213 834.428 711.278C819.905 713.664 840.868 764.255 858.074 779.776C903.733 799.696 996.243 746.615 1023.52 724.501C1053.13 703.358 1049.94 729.113 1043.69 740.049C1017.02 776.274 963.065 800.675 939.422 808.347C1132.41 958.997 1179.68 772.608 1192.2 759.599C1202.21 749.192 1211.62 752.436 1212.99 756.851C1223.43 816.545 1150.06 875.331 1112.33 897.696Z" fill="#781F39"/>
<path d="M20.0059 1013.27C49.9286 974.604 121.615 888.586 168.977 853.812C71.9203 827.321 -70.9582 735.925 133.98 582.271C127.14 621.765 126.165 707.96 181.096 737.555C185.554 739.335 194.362 734.911 192.574 721.683C190.339 705.147 71.4048 558.266 319.758 519.288C310.368 540.133 294.489 591.94 306.093 632.412C310.783 643.401 329.417 661.417 331.888 628.219C332.046 596.011 340.759 529.371 386.86 510.479C410.685 508.289 465.218 525.105 457.577 536.479C444.558 555.856 421.525 593.972 435.577 597.321C444.748 599.507 455.718 600.606 464.367 582.783C468.047 569.722 481.491 544.64 505.833 548.804C530.175 552.969 545.311 565.248 571.835 571.553C627.599 584.81 683.12 589.481 718.561 575.237C693.055 586.436 646.422 630.987 642.688 716.571C639.179 729.665 633.805 745.89 571.835 730.057C557.264 728.285 540.562 752.19 574.76 757.151L657.874 754.962C659.939 775.258 654.15 826.231 614.47 867.749C582.075 871.184 533.213 905.664 485.194 845.88C455.299 883.441 482.752 1010.04 414.31 970.715C396.793 959.07 350.747 919.503 306.702 854.393C299.545 846.651 279.562 840.13 284.854 868.804C298.066 901.61 342.954 973.8 416.808 1000.1C388.704 1015.71 319.809 1041.92 269.064 1021.83C243.606 1011.86 190.467 966.766 181.58 866.12C158.046 880.058 95.133 932.948 31.7549 1033L20.0059 1013.27Z" fill="#DC7831"/>
<path d="M168.977 853.812C121.615 888.586 49.9286 974.604 20.0059 1013.27L31.7549 1033C95.133 932.948 158.046 880.058 181.58 866.12L718.561 575.237C683.12 589.481 627.599 584.81 571.835 571.553C545.311 565.248 530.175 552.969 505.833 548.804C481.491 544.64 468.047 569.722 464.367 582.783C455.718 600.606 444.748 599.507 435.577 597.321C421.525 593.972 444.558 555.856 457.577 536.479C465.218 525.105 410.685 508.289 386.86 510.479C340.759 529.371 332.046 596.011 331.888 628.219C329.417 661.417 310.783 643.401 306.093 632.412C294.489 591.94 310.368 540.133 319.758 519.288C71.4048 558.266 190.339 705.147 192.574 721.683C194.362 734.911 185.554 739.335 181.096 737.555C126.165 707.96 127.14 621.765 133.98 582.271C-70.9582 735.925 71.9203 827.321 168.977 853.812Z" fill="#D1662F"/>
<path d="M215.06 -132.346C185.174 -182.593 105.316 -265.59 69.1224 -300.807L47.1228 -294.241C142.621 -215.871 189.265 -147.733 200.651 -123.46C95.108 -136.322 41.4053 -97.4404 27.7468 -76.3921C0.288665 -34.4837 18.4769 33.5371 31.0034 62.309C67.9167 0.705022 148.643 -25.0479 184.392 -30.2239C214.821 -29.0659 205.451 -12.2738 196.488 -7.38376C123.213 19.076 76.1683 52.665 61.8053 66.1521C12.0918 120.133 69.7736 203.554 104.829 238.517C117.548 176.042 185.955 133.815 218.568 120.511C248.456 112.913 239.901 133.472 229.808 139.977C161.538 171.154 143.143 239.219 142.478 269.355C180.361 314.028 232.471 329.887 253.791 332.233L270.752 235.695C280.359 205.668 302.973 225.809 299.234 238.673C274.727 291.662 282.466 320.517 295.588 326.426C383.864 347.619 405.025 330.057 413.313 355.552C403.164 320.401 442.309 324.084 455.236 292.239C460.961 281.134 479.946 258.269 487.441 237.028C494.936 215.787 470.677 198.359 457.611 192.301C440.255 180.739 442.827 171.004 446.29 163.13C451.597 151.065 488.123 179.911 506.521 195.765C517.32 205.07 541.876 159.04 542.713 136.947C529.135 91.149 461.157 69.3748 427.774 62.5327C393.665 53.3833 414.782 40.2071 426.791 38.2334C470.279 36.1119 512.934 49.4454 533.328 62.309C525.307 -171.354 366.458 -82.024 349.017 -83.4332C335.064 -84.5605 331.624 -93.4806 334.052 -97.1585C371.914 -140.892 461.182 -122.079 501.25 -107.652C368.631 -325.737 255.199 -214.983 215.06 -132.346Z" fill="#BE4E34"/>
<path d="M215.06 -132.346C185.174 -182.593 105.316 -265.59 69.1224 -300.807L47.1228 -294.241C142.621 -215.871 189.265 -147.733 200.651 -123.46C291.104 90.622 413.313 374.805 413.313 374.805C403.164 339.655 442.309 324.084 455.236 292.239C460.961 281.134 479.946 258.269 487.441 237.028C494.936 215.787 470.677 198.359 457.611 192.301C440.255 180.739 442.827 171.004 446.29 163.13C451.597 151.065 488.123 179.911 506.521 195.765C517.32 205.07 541.876 159.04 542.713 136.947C529.135 91.149 461.157 69.3748 427.774 62.5327C393.665 53.3833 414.782 40.2072 426.791 38.2335C470.279 36.112 522.319 39.763 542.713 52.6265C534.692 -181.036 366.458 -82.024 349.017 -83.4331C335.064 -84.5605 331.624 -93.4805 334.052 -97.1585C371.914 -140.892 461.182 -122.079 501.25 -107.652C368.631 -325.737 255.199 -214.983 215.06 -132.346Z" fill="#A93F3A"/>
<ellipse cx="340.791" cy="710.462" rx="75.0895" ry="27.597" fill="#A54A1C"/>
<path d="M340.009 118.786C365.329 119.288 384.006 125.68 396.04 137.965C408.074 150.249 464.857 206.907 566.39 307.939C666.67 207.659 723.077 151.126 735.612 138.341C748.147 125.304 766.824 118.786 791.644 118.786C841.533 119.037 866.603 143.981 866.854 193.62L867.23 644.879C867.23 694.768 841.909 720.089 791.268 720.841C741.629 720.59 716.434 695.269 715.682 644.879V379.012C665.291 430.907 633.828 463.247 621.293 476.033C609.009 488.568 590.457 494.835 565.638 494.835C541.571 494.835 523.019 488.317 509.983 475.281C497.197 462.244 465.734 430.656 415.594 380.516V644.879C415.344 694.517 390.274 719.587 340.385 720.089C289.994 720.339 264.924 695.269 265.175 644.879V193.62C265.175 143.731 290.119 118.786 340.009 118.786Z" fill="#FEF4E0"/>
<path d="M537.923 764.411C554.914 765.554 568.971 741.173 568.971 741.173L565.235 738.155C565.235 738.155 525.854 735.756 523.107 747.075C518.023 768.022 520.932 763.269 537.923 764.411Z" fill="#BE4E34"/>
<path d="M590.439 706.125C598.836 717.6 575.976 737.605 575.976 737.605L570.873 736.231C570.873 736.231 563.496 718.775 563.884 702.903C564.406 681.554 582.041 694.651 590.439 706.125Z" fill="#83563C"/>
<path d="M511.2 673.034C519.598 684.508 506.307 704.343 506.307 704.343L501.204 702.969C501.204 702.969 486.4 690.065 486.788 674.193C487.31 652.844 502.803 661.56 511.2 673.034Z" fill="#BE4E34"/>
<path d="M433.093 643.847C441.49 655.322 446.79 675.788 446.79 675.788L434.661 673.425C434.661 673.425 404.47 661.37 404.858 645.498C405.38 624.149 424.695 632.373 433.093 643.847Z" fill="#BE4E34"/>
<path d="M488.633 736.305C505.624 737.447 519.681 713.067 519.681 713.067L515.945 710.049C515.945 710.049 483.889 712.191 473.817 718.969C453.04 732.95 471.642 735.163 488.633 736.305Z" fill="#BE4E34"/>
<path d="M470.73 664.144C476.478 671.831 469.254 685.954 469.254 685.954L466.681 685.112C466.681 685.112 457.868 669.291 457.987 662.449C458.232 648.334 464.981 656.456 470.73 664.144Z" fill="#BE4E34"/>
<path d="M440.808 702.116C453.468 704.973 466.969 687.904 466.969 687.904L464.516 685.153C464.516 685.153 440.116 683.059 431.721 687.086C414.401 695.391 428.147 699.258 440.808 702.116Z" fill="#BE4E34"/>
<path d="M521.488 714.312C554.652 724.291 592.283 771.337 592.283 771.337L603.64 769.005C603.64 769.005 563.786 712.128 525.74 705.528C495.067 700.207 431.006 665.362 431.006 665.362C431.006 665.362 491.629 705.327 521.488 714.312Z" fill="#BE4E34"/>
<path d="M638.853 318.947C634.503 305.266 657.924 287.519 657.924 287.519L661.832 289.825C661.832 289.825 671.651 321.597 660.081 326.729C638.669 336.227 643.204 332.628 638.853 318.947Z" fill="#DC7831"/>
<path d="M706.804 263.774C693.014 259.782 675.884 283.657 675.884 283.657L678.291 287.505C678.291 287.505 698.275 289.139 715.137 284.792C737.819 278.943 720.594 267.767 706.804 263.774Z" fill="#A93F3A"/>
<path d="M736.967 303.033C723.177 299.041 704.464 315.004 704.464 315.004L706.872 318.851C706.872 318.851 723.368 327.749 740.231 323.401C762.912 317.553 750.757 307.026 736.967 303.033Z" fill="#A93F3A"/>
<path d="M769.09 375.779C755.465 371.257 732.636 371.213 732.636 371.213L737.028 380.763C737.028 380.763 754.601 403.223 771.618 399.53C794.509 394.562 782.716 380.301 769.09 375.779Z" fill="#A93F3A"/>
<path d="M686.031 360.468C681.68 346.786 705.101 329.039 705.101 329.039L709.01 331.345C709.01 331.345 712.632 358.248 707.258 368.25C696.171 388.883 690.381 374.149 686.031 360.468Z" fill="#A93F3A"/>
<path d="M695.524 320.241C674.714 297.769 634.454 271.035 634.454 271.035L643.096 260.853C643.096 260.853 685.883 288.899 705.288 314.409C723.263 338.039 738.791 382.653 738.791 382.653C738.791 382.653 715.676 342 695.524 320.241Z" fill="#A93F3A"/>
<path d="M424.446 212.076C431.545 202.626 418.167 182.469 418.167 182.469L414.503 183.199C414.503 183.199 398.237 205.222 405.835 212.355C419.893 225.555 417.347 221.526 424.446 212.076Z" fill="#83563C"/>
<path d="M395.462 149.166C407.264 149.811 414.088 173.021 414.088 173.021L411.172 175.357C411.172 175.357 395.197 171.196 383.274 163.235C367.236 152.526 383.66 148.521 395.462 149.166Z" fill="#BE4E34"/>
<path d="M345.186 183.294C356.988 183.939 367.192 201.43 367.192 201.43L364.275 203.766C364.275 203.766 349.037 206.197 337.114 198.236C321.076 187.527 333.384 182.649 345.186 183.294Z" fill="#BE4E34"/>
<path d="M306.469 220.342C318.271 220.987 335.773 227.837 335.773 227.837L329.529 233.829C329.529 233.829 309.293 245.736 297.37 237.774C281.333 227.065 294.667 219.697 306.469 220.342Z" fill="#BE4E34"/>
<path d="M376.499 231.524C383.598 222.074 370.219 201.917 370.219 201.917L366.555 202.647C366.555 202.647 356.428 222.57 357.887 231.803C360.896 250.851 369.4 240.974 376.499 231.524Z" fill="#BE4E34"/>
<path d="M380.053 197.681C402.333 185.873 440.886 176.038 440.886 176.038L436.937 165.776C436.937 165.776 396.063 175.944 374.05 190.496C353.659 203.975 329.467 234.427 329.467 234.427C329.467 234.427 358.479 209.115 380.053 197.681Z" fill="#BE4E34"/>
<path d="M737.451 -142.387C749.22 -202.406 744.084 -320.738 740.045 -372.401L717.631 -380.866C738.671 -256.482 727.642 -171.243 719.498 -144.171C643.619 -221.158 572.597 -223.079 546.57 -214.417C494.538 -197.335 460.66 -130.105 450.225 -98.6257C523.931 -125.907 607.364 -96.2076 639.867 -77.948C663.563 -57.8433 644.03 -49.9719 633.317 -51.6041C555.385 -76.0326 496.192 -79.9665 474.993 -77.948C396.411 -64.9759 384.979 48.0975 388.283 98.836C424.223 65.4628 524.076 57.555 559.853 67.1756C589.361 79.7593 567.797 91.2328 555.021 90.2136C477.756 72.8046 414.364 117.041 392.326 141.335C390.978 201.816 421.657 247.626 437.165 262.97L519.719 194.481C548.887 175.905 552.739 206.657 540.547 214.853C482.987 242.879 468.635 271.413 474.993 284.519C531.012 357.468 506.941 451.174 515 451.176C523.059 451.179 576.841 383.062 628.046 356.983C652.395 344.582 672.199 344.681 693.396 331.981C714.593 319.28 707.478 289.718 701.271 276.524C695.533 256.118 704.552 249.753 712.963 245.476C725.848 238.923 734.701 285.571 738.216 310.154C740.278 324.583 792.912 302.294 809.351 284.704C831.088 238.6 791.842 177.951 769.821 151.326C748.861 122.352 775.281 124.84 786.367 130.781C822.928 156.417 846.581 209.599 853.838 232.986C1014.1 36.3229 823.555 -5.81544 810.504 -17.9505C800.064 -27.6585 803.657 -37.1383 808.238 -38.626C869.957 -50.6555 928.473 20.9668 950.47 58.0199C999.206 -204.304 828.764 -184.886 737.451 -142.387Z" fill="#DB7933"/>
<path d="M737.451 -142.387C749.22 -202.405 744.084 -320.737 740.045 -372.401L717.631 -380.865C738.671 -256.482 727.642 -171.242 719.498 -144.171C643.619 -221.157 572.597 -223.079 546.57 -214.416C494.539 -197.335 460.66 -130.105 450.225 -98.6252C523.931 -125.906 607.364 -96.2071 639.867 -77.9475C663.563 -57.8428 644.03 -49.9713 633.317 -51.6035C555.385 -76.032 496.192 -79.966 474.993 -77.9475C396.411 -64.9754 384.98 48.0981 388.283 98.8365C424.223 65.4634 524.077 57.5556 559.853 67.1762C589.361 79.7598 567.797 91.2333 555.021 90.2142C477.757 72.8051 414.364 117.041 392.326 141.336C390.979 201.817 421.658 247.626 437.165 262.971L519.719 194.481C548.887 175.906 552.739 206.657 540.547 214.853C482.987 242.879 468.635 271.414 474.993 284.52C531.012 357.468 506.941 451.174 515 451.177C515 451.177 725.682 -82.368 737.451 -142.387Z" fill="#D1662F"/>
<path d="M1258.43 39.3596C1294.88 -10.4568 1343.19 -122.974 1362.79 -173.005L1347.92 -192.179C1310.14 -66.0143 1263.09 7.60429 1244.29 28.643C1215.43 -81.1644 1157.24 -118.788 1131.76 -123.875C1080.92 -134.263 1022.89 -88.9043 1000.22 -64.9267C1073.61 -53.0765 1129.77 16.6144 1148.68 49.9786C1159.44 80.6126 1139.7 78.0678 1131.53 71.1459C1077.6 9.12694 1027.08 -24.022 1008.56 -32.8441C937.477 -60.4473 880.107 30.2535 860.307 79.0543C925.091 66.5667 992.215 117.426 1017.68 144.416C1036.62 170.996 1013.59 170.773 1003.43 163.379C946.935 108.218 874.584 117.323 845.47 128.77C817.476 184.275 822.623 242.311 828.696 264.391L927.751 242.425C960.251 239.888 949.789 270.399 936.012 271.861C875.712 268.85 851.103 288.115 850.565 303.498C864.717 399.533 802.537 473.098 809.768 478.504C816.999 483.91 891.256 446.424 945.592 448.047C971.415 448.819 987.761 458.9 1011.02 457.798C1034.29 456.696 1041.51 425.643 1042.21 410.255C1046.51 388.403 1056.83 387.042 1065.73 387.312C1079.35 387.727 1065.98 435.528 1057.98 460.138C1053.28 474.583 1106.94 480.438 1128.42 472.393C1166.97 440.532 1161.3 364.388 1154.82 328.542C1150.28 291.05 1171.13 306.693 1177.71 317.806C1196.71 360.07 1192.74 421.41 1188.38 446.797C1408.98 344.978 1269.32 209.679 1263.86 191.821C1259.49 177.534 1266.69 170.541 1271.16 171.47C1327.81 191.439 1344.63 287.502 1346.45 333.023C1503.52 113.928 1353.21 45.9577 1258.43 39.3596Z" fill="#BE4E34"/>
<path d="M1346.45 333.023C1503.52 113.928 1353.21 45.9577 1258.43 39.3596L809.768 478.504C816.999 483.91 891.256 446.424 945.592 448.047C971.415 448.819 987.761 458.9 1011.02 457.798C1034.29 456.696 1041.51 425.643 1042.21 410.255C1046.51 388.403 1056.83 387.042 1065.73 387.312C1079.35 387.727 1065.98 435.528 1057.98 460.138C1053.28 474.583 1106.94 480.438 1128.42 472.393C1166.97 440.532 1161.3 364.388 1154.82 328.542C1150.28 291.05 1171.13 306.693 1177.71 317.806C1196.71 360.07 1192.74 421.41 1188.38 446.797C1408.98 344.978 1269.32 209.679 1263.86 191.821C1259.49 177.534 1266.69 170.541 1271.16 171.47C1327.81 191.44 1344.63 287.502 1346.45 333.023Z" fill="#A93F3A"/>
<path d="M-254.179 429.065C-321.337 448.6 -441.501 516.187 -493.188 547.539L-492.257 574.991C-372.707 487.9 -279.784 454.324 -248.266 448.423C-295.102 566.81 -266.402 640.683 -246.197 662.821C-206.048 707.204 -121.878 706.553 -84.8122 700.68C-144.874 639.434 -150.209 538.2 -145.369 495.239C-134.815 460.341 -118.234 476.235 -115.293 488.085C-106.884 580.899 -82.2872 645.472 -71.0399 666.156C-23.6693 739.941 90.2694 698.168 141.317 668.058C72.9209 634.575 44.8047 542.666 39.2962 500.897C39.5604 463.997 60.7443 480.077 65.2107 493.721C80.5907 582.154 153.733 623.891 188.381 633.705C251.515 603.236 285.636 547.637 294.805 523.647L188.301 475.025C156.486 454.885 186.626 434.738 200.371 442.929C254.227 487.22 289.939 486.916 300.747 473.491C351.988 377.604 458.258 353.53 455.823 344.68C453.405 335.895 358.771 317.206 309.559 278.314C286.167 259.827 277.758 239.496 255.464 224.439C233.17 209.382 205.67 232.25 194.706 245.566C176.08 262.199 165.601 256.298 157.544 249.923C145.198 240.155 189.618 206.506 213.524 189.954C227.555 180.239 181.761 137.98 156.465 130.38C99.3909 132.361 53.6243 204.563 35.6023 241.176C14.6925 277.937 5.84998 249.523 7.20425 235.021C17.9206 184.013 62.7033 131.739 83.7552 111.978C-188.889 51.1352 -150.136 268.808 -157.048 288.587C-162.577 304.41 -173.934 305.716 -177.452 301.8C-216.561 244.819 -167.771 147.069 -138.954 104.989C-431.316 193.142 -337.588 357.77 -254.179 429.065Z" fill="#962B43"/>
<path d="M300.747 473.492C351.988 377.605 458.258 353.531 455.822 344.68L-248.267 448.423C-295.103 566.811 -266.402 640.684 -246.197 662.822C-206.048 707.205 -121.879 706.554 -84.8125 700.681C-144.875 639.434 -150.21 538.201 -145.369 495.24C-134.815 460.342 -118.234 476.236 -115.293 488.085C-106.884 580.9 -82.2876 645.472 -71.0403 666.157C-23.6697 739.941 90.2691 698.168 141.317 668.059C72.9206 634.575 44.8044 542.666 39.2959 500.897C39.5601 463.998 60.744 480.078 65.2104 493.722C80.5904 582.154 153.732 623.892 188.381 633.706C251.514 603.236 285.636 547.638 294.805 523.647L188.301 475.026C156.486 454.886 186.626 434.738 200.37 442.93C254.227 487.221 289.939 486.917 300.747 473.492Z" fill="#781F39"/>
<path d="M854.596 1032.84C880.039 1087.93 952.838 1179.61 986.057 1218.56L1008.87 1211.94C919.858 1124.92 879.183 1050.08 869.972 1023.53C975.277 1039.82 1033.12 998.912 1048.88 976.42C1080.53 931.643 1068.56 857.563 1058.62 826.12C1015.58 892.018 931.698 918.107 895.134 922.914C864.535 920.979 875.568 903.001 885.073 897.905C961.505 870.885 1012.14 835.556 1027.9 821.269C1083.14 763.913 1032.76 672.27 1000.66 633.618C981.961 701.001 908.961 745.208 874.798 758.888C843.922 766.45 854.486 744.374 865.283 737.553C937.107 705.311 962.063 632.001 965.563 599.376C931.527 550.144 880.427 531.801 859.131 528.784L832.95 632.966C820.435 665.274 799.505 642.954 804.486 629.104C834.194 572.259 829.092 540.834 816.405 534.14C729.308 509.213 693.588 425.207 687.697 424.61C681.805 424.012 677.831 516.134 652.081 567.599C639.835 592.072 623.953 603.84 614.395 626.678C604.837 649.517 627.682 668.935 640.3 675.789C656.73 688.7 653.22 699.186 648.985 707.638C642.497 720.586 608.344 688.527 591.266 670.944C581.241 660.624 552.138 709.93 549.219 733.841C558.621 783.748 625.179 808.851 658.227 817.008C691.789 827.68 669.241 841.48 656.937 843.349C612.85 844.675 563.081 816.229 543.708 801.841C529.863 1055.1 706.532 974.949 724.001 976.865C737.977 978.398 740.61 988.136 737.815 992.065C695.499 1038.59 607.177 1016.21 568.095 999.694C681.456 1238.87 806.329 1121.44 854.596 1032.84Z" fill="#BE4E34"/>
<path d="M568.095 999.693C681.456 1238.87 762.447 1166.77 854.596 1032.84L687.696 424.609C681.804 424.012 677.831 516.134 652.081 567.598C639.835 592.072 623.953 603.839 614.395 626.678C604.837 649.517 627.682 668.935 640.3 675.789C656.73 688.699 653.22 699.185 648.985 707.637C642.497 720.586 608.344 688.526 591.265 670.944C581.241 660.623 552.137 709.929 549.218 733.84C558.621 783.748 625.179 808.851 658.226 817.008C691.789 827.68 669.241 841.479 656.936 843.348C612.85 844.674 563.081 816.228 543.708 801.84C529.862 1055.1 706.532 974.948 724.001 976.864C737.977 978.397 740.61 988.135 737.814 992.065C695.498 1038.59 607.177 1016.21 568.095 999.693Z" fill="#A93F3A"/>
</g>
</svg>
