<svg width="324" height="324" viewBox="0 0 324 324" fill="none" xmlns="http://www.w3.org/2000/svg">
<path d="M49 77.5467C49 77.5467 49 200.244 49 252.719C49 255.849 56.9148 255.849 56.9148 252.719C56.9147 203.106 56.9148 112.085 56.9148 59.0372C56.9148 56.0937 64.8296 56.0937 64.8296 59.0372C64.8296 141.853 64.8296 222.283 64.8296 268.653C64.8296 271.782 72.7444 271.782 72.7444 268.653C72.7444 247.472 72.7443 106.838 72.7444 55.1254C72.7444 52.0701 80.6591 52.0701 80.6591 55.1254C80.6591 98.2507 80.6591 226.672 80.6591 268.653C80.6591 271.633 88.574 271.633 88.574 268.653C88.574 245.086 88.574 93.0985 88.574 59.0372C88.574 56.2055 96.4887 56.2055 96.4887 59.0372C96.4887 108.65 96.4887 224.669 96.4887 247.472C96.4887 250.601 104.403 250.601 104.403 247.472C104.403 226.291 104.403 110.749 104.403 77.5467C104.403 74.715 112.318 74.8104 112.318 77.6422C112.318 99.5864 112.318 141.471 112.318 156.641C112.318 159.958 120.233 159.958 120.233 156.641C120.233 142.616 120.233 114.852 120.233 91.4766C120.233 88.6448 128.148 88.6448 128.148 91.4766C128.148 115.234 128.148 156.641 128.148 172.384C128.148 175.514 136.063 175.514 136.063 172.384C136.063 161.507 136.063 126.11 136.063 106.838C136.063 104.192 143.977 104.166 143.977 106.838C143.977 138.609 143.977 172.384 143.977 186.791C143.977 190.293 151.892 190.293 151.892 186.791C151.892 180.78 151.892 141.948 151.892 122.103C151.892 119.122 159.807 119.122 159.807 122.103C159.807 139.754 159.807 175.056 159.807 186.791C159.807 189.772 167.722 189.772 167.722 186.791C167.722 178.013 167.722 123.63 167.722 106.838C167.722 104.006 175.637 104.006 175.637 106.838C175.637 128.686 175.637 159.408 175.637 172.384C175.637 175.7 183.551 175.7 183.551 172.384C183.551 163.034 183.551 111.417 183.551 91.4766C183.551 88.4958 191.466 88.4958 191.466 91.4766C191.466 105.502 191.466 144.143 191.466 156.642C191.466 159.473 199.381 159.473 199.381 156.641C199.381 147.196 199.381 91.4766 199.381 77.5467C199.381 74.566 207.296 74.566 207.296 77.5468C207.296 96.0562 207.296 130.881 207.296 147.196C207.296 150.512 215.21 150.512 215.21 147.196C215.21 134.793 215.21 77.5468 215.21 59.0372C215.21 55.9447 223.318 55.9447 223.318 59.0372C223.318 88.4235 222.932 224.573 222.932 247.472C222.932 250.415 231.04 250.429 231.04 247.472C231.04 235.545 231.04 101.208 231.04 55.1254C231.04 52.0329 239.051 52.0329 239.051 55.1254C239.051 104.166 238.762 237.931 238.762 268.653C238.762 271.782 247.063 271.782 247.063 268.653C247.063 249.571 246.677 106.838 246.677 53.5989C246.677 50.1337 255.17 50.1337 255.17 53.5989C255.17 106.838 254.109 247.472 254.109 268.653C254.109 271.559 262.12 271.559 262.12 268.653C262.12 235.355 263.085 104.929 263.085 77.6422C263.085 74.6986 271 74.6032 271 77.5467C271 95.77 270.421 180.78 270.421 180.78" stroke="#962B44" stroke-width="2.5"/>
<path d="M272.02 178.686L272.243 177.485L277.969 171.577L278.252 169.724L288.346 159.309L288.659 157.841C288.659 157.841 294.809 151.496 300.643 145.477M272.02 178.686L271.909 179.286L272.505 179.156M272.02 178.686C272.02 178.686 268.714 182.097 270.315 180.931C271.915 179.765 272.505 179.156 272.505 179.156M272.505 179.156L273.699 178.896L279.425 172.987L281.371 172.748L291.466 162.332L293.103 161.883C293.103 161.883 299.218 155.465 304.925 149.577M300.643 145.477C303.209 142.828 305.714 140.243 307.608 138.289C309.614 136.22 313.81 140.337 311.805 142.406C310.085 144.18 307.611 146.805 304.925 149.577M300.643 145.477C300.643 145.477 302.886 145.691 303.83 146.558C304.832 147.477 304.925 149.577 304.925 149.577" stroke="#2B2B2B" stroke-width="1.5"/>
</svg>
