<svg xmlns="http://www.w3.org/2000/svg" width="2694.827" height="627.441" viewBox="0 0 2694.827 627.441">
  <path id="Path_44" data-name="Path 44" d="M-1266.6-624.512q39.551.977,58.35,20.02t177,176.758Q-875-583.984-855.469-604.248t58.105-20.264q77.637.488,78.125,77.637l.488,468.75q0,78.125-79.1,79.1Q-875,.488-876.465-78.125V-354q-78.613,80.566-97.9,100.342t-57.861,19.775q-37.6,0-57.617-20.264t-98.145-98.389V-78.125Q-1188.477-.488-1266.113,0q-78.613.488-78.125-78.125v-468.75Q-1344.238-624.512-1266.6-624.512Zm695.313.488q78.125.488,79.59,77.148V-77.148q-.977,77.637-78.613,79.1Q-648.437,0-648.437-77.148V-546.387Q-648.926-624.023-571.289-624.023Zm238.281,0q42.48,3.418,67.871,32.227L-31.25-293.457V-555.664q1.465-66.894,66.406-68.359,87.891,1.465,88.867,70.313l.488,485.84Q124.023-.977,35.156,0-4.883-.488-30.273-32.227L-265.137-329.59V-67.871Q-265.625-.488-333.008,0q-88.379,0-88.867-68.848v-487.3Q-421.875-623.535-333.008-624.023Zm604.98-1.465,395.508.977q72.754.977,73.242,75.684,0,79.59-79.1,81.055H350.586v311.035H661.133q78.613.488,78.613,79.1Q739.746-.977,662.6,0H271.973q-77.637,0-78.125-75.684v-470.7Q194.336-624.023,271.973-625.488ZM388.184-310.547q.488-78.125,77.148-79.1H622.559q78.125.488,79.1,78.125Q700.2-233.4,622.559-233.4H465.82Q388.184-232.91,388.184-310.547ZM881.836-625.488l395.508.977q72.754.977,73.242,75.684,0,79.59-79.1,81.055h-116.7l.488,390.137Q1154.3-.977,1076.66,0q-78.125,0-78.125-75.684l.488-392.09H881.836q-78.125,0-78.125-78.613Q804.2-624.023,881.836-625.488Z" transform="translate(1344.241 625.488)" fill="#69e"/>
</svg>
